<svg id="Layer_1" data-name="Layer 1" xmlns="http://www.w3.org/2000/svg" viewBox="0 0 841.89 595.28"><defs><style>.cls-1{font-size:15px;fill:#231f20;font-family:DINNextSlabPro-Regular, DIN Next Slab Pro;}.cls-2{letter-spacing:-0.03em;}.cls-3{letter-spacing:-0.02em;}.cls-4{letter-spacing:0em;}.cls-5{fill:none;}.cls-14,.cls-6{fill:#955ba4;}.cls-10,.cls-11,.cls-12,.cls-13,.cls-14,.cls-15,.cls-16,.cls-17,.cls-18,.cls-19,.cls-20,.cls-21,.cls-6,.cls-7,.cls-8,.cls-9{stroke:#231f20;stroke-miterlimit:10;}.cls-10,.cls-11,.cls-12,.cls-13,.cls-6,.cls-7,.cls-8,.cls-9{stroke-width:0.75px;fill-rule:evenodd;}.cls-16,.cls-7{fill:#e74c3b;}.cls-15,.cls-8{fill:#1a6566;}.cls-20,.cls-9{fill:#3596d2;}.cls-10,.cls-21{fill:#24ae5f;}.cls-11,.cls-17{fill:#efc319;}.cls-12,.cls-19{fill:#16b798;}.cls-13,.cls-18{fill:#e57e25;}.cls-14,.cls-15,.cls-16,.cls-17,.cls-18,.cls-19,.cls-20,.cls-21{stroke-width:0.5px;}</style></defs><text class="cls-1" transform="translate(296.63 383.58)"><tspan class="cls-2">W</tspan><tspan x="12.69" y="0">a</tspan><tspan class="cls-3" x="20.55" y="0">r</tspan><tspan class="cls-4" x="26.4" y="0">d 8</tspan></text><text class="cls-1" transform="translate(296.63 358.61)"><tspan class="cls-2">W</tspan><tspan x="12.69" y="0">a</tspan><tspan class="cls-3" x="20.55" y="0">r</tspan><tspan class="cls-4" x="26.4" y="0">d 7</tspan></text><text class="cls-1" transform="translate(296.63 333.89)"><tspan class="cls-2">W</tspan><tspan x="12.69" y="0">a</tspan><tspan class="cls-3" x="20.55" y="0">r</tspan><tspan class="cls-4" x="26.4" y="0">d 6</tspan></text><text class="cls-1" transform="translate(296.63 309.16)"><tspan class="cls-2">W</tspan><tspan x="12.69" y="0">a</tspan><tspan class="cls-3" x="20.55" y="0">r</tspan><tspan class="cls-4" x="26.4" y="0">d 5</tspan></text><text class="cls-1" transform="translate(296.63 284.44)"><tspan class="cls-2">W</tspan><tspan x="12.69" y="0">a</tspan><tspan class="cls-3" x="20.55" y="0">r</tspan><tspan class="cls-4" x="26.4" y="0">d 4</tspan></text><text class="cls-1" transform="translate(296.63 256.86)"><tspan class="cls-2">W</tspan><tspan x="12.69" y="0">a</tspan><tspan class="cls-3" x="20.55" y="0">r</tspan><tspan class="cls-4" x="26.4" y="0">d 3</tspan></text><text class="cls-1" transform="translate(296.63 232.14)"><tspan class="cls-2">W</tspan><tspan x="12.69" y="0">a</tspan><tspan class="cls-3" x="20.55" y="0">r</tspan><tspan class="cls-4" x="26.4" y="0">d 2</tspan></text><text class="cls-1" transform="translate(296.63 207.41)"><tspan class="cls-2">W</tspan><tspan x="12.69" y="0">a</tspan><tspan class="cls-3" x="20.55" y="0">r</tspan><tspan class="cls-4" x="26.4" y="0">d 1</tspan></text><rect class="cls-5" x="349.42" y="13.12" width="471.86" height="572.63"/><rect class="cls-5" x="349.42" y="13.12" width="471.86" height="572.63"/><path class="cls-6" d="M651.29,329.4l.47.1-.11-.52v-.08h.06l.11,0,.24-.39,1.15.2.31,0,.32.06.16,0,.16,0,.17.05.21.08.21.09,1-.2.19.93.39,1.92.6,2.92.49,2.07,0,.22,0,.27.08.34,0,.16.06.21.07.28,0,.18.12.37.05.15.06.16.07.21.08.2.12.28.16.38.27.53.27.51.35.57.29.42.26.36.28.33.21.25.35.44.43.51.42.5.06.08,1.21-1.53.35-.44.55-.67,2.14-3.09,1.26-1.54,2.13-2.31,1.18-1.21.81-.76,1-1,1.46-1.3,6.13-4.27,1.18-.79,2.47,2.3.15.23,0,.07.39.61.13.21.13.21.14.21.14.21,0,0,0,0,0,0,.11.13.16.15.08.06.07.06.07,0,.45.25.35.16.23.11.25.12.32.15.17.09.16.08.62.28.29.23.11.08.13.07.15.07.14.06.15.07.13.06.14,0,.13.06.13.06.35.14.06,0,.15.05.14.06.14.05.14.06.14.06.14.06.14.06.14.06.14.06.2.08.21.09.36.15.64.26.5.21.51.21.07,0,.24.1.17.33.17-.11.16-.1.44-.48.58-.63.51-.54,0,0,.13-.14,0,.06,0,.05,0,.06,0,.06,0,.06v.11l0,.05.09.48.07.34,0,.16.21,1.07,0,.07,0,.15,0,.16.1.5,0,.17.19.95,0,.2,0,.19v.08l.14.69.19.91v0l0,.16,0,.19.16.84,0,.08.19.89,0,.24.18.91h0l0,.21,0,.19.1.49.2,1v.21l0,.07,0,.07,0,.07,0,0v0l0,.07,0,.06,0,.06.23.36.17.25v0l.11.18.16.23.27.39.08.12.08.13.08.13.08.13.08.13.07.13.07.14.07.13.07.14.06.13.07.16,0,.05.05.11,0,.14h0l.06.16v0l0,.12.06.17,0,.16,0,.16.05.17,0,.16,0,.16,0,.16,0,.16,0,.16,0,.16,0,.16,0,.1v.06l0,.16V351h0v1.09l0,.14v.33l0,.09v.25l0,.08v.08l-.06.28,0,.11,0,.12v.11l0,.12v1.29l0,.14,0,.14,0,.15,0,.14,0,.14,0,.13,0,.14,0,.08,0,.05,0,.13h0l.05.12,0,.1,0,0,.06.13.06.12.06.13.07.12.08.11,0,.08.05.08,0,0,0,0,0,.07.05.08.06.07.05.08.06.07.05.08.06.07.09.12.39.54,0,.06.09.12.09.12.09.12.09.12.1.14.1.14.11.14.1.14.1.14.11.15.1.14.1.14.11.14,0,.05.07.09.39.53.1.13.26.36.05.08,0,.08,0,.08.05.08,0,.08,0,.08,0,0,0,0,0,0,0,0,0,0,0,0,0,0,0,0,0,0h0l0,0,0,0,.23.37v0l.68,1.21.11.18.21.39.24.46.15.13.16.14.16.13.09.07.09.07.1.06.1.06.09.06.1.06.1.05h0l.1.05.11,0h0l0,.28h0l0,.33.18,1.08.21,1.23,0,.13,0,.07,0,.21,0,.15v.05l.06.2.06.16v0l.07.2.07.2.07.19.08.2.09.19.06.13.06.14.07.13.07.14.07.13,0,.08,0,.05.07.13,0,.05.12.2h0l.07.12,0,.08.05.08.06.08.05.08.14.2.14.19.06.08.12.17.13.16.12.17.12.16.13.17.14.19.1.14.13.17h0l.11.15,0,0,.1.14.11.15.12.16.11.15.12.16.11.15.12.16.11.15.12.15.12.16.11.15.12.17.13.16.12.16.13.16.13.16.12.16.13.15.13.16.14.15.13.15.17.2.17.2.17.2.17.2.17.2,0,0,.14.18.3.32.22.27.13.16,0,0,.12.14.17.19.2.21.13.13.13.13.13.13.13.12.14.12.13.13.09.08.09.08.09.08.08.08.09.08.09.09.09.08.09.08.09.08.09.08.71.66.51.47.32.29,1.11,1,.71.65.39.34.08.07.08.06.09.06.09.06.09.05.09,0,.1,0,.09,0,.23.06h.6l.6-.15.13,0,.09,0,.1,0h0L614.6,574l-.13-.63-.75-3.52-2.11-9.66-.47-2.11-1.64-7.7-.2-2.81-.24-3.14-.41-6.3-.75-11.71,0-4.33-.05-5.52,0-3.56-.3-1.4-4.08-1.33,0,0,0-.05,0,0,0,0,0-.05,0,0,0,0,0-.05,0,0,0,0,0,0,0,0,0,0,0,0,0,0,0,0,0,0v0l0,0,0,0,0,0,0,0,0,0,0,0,0,0,0,0,0,0,0,0,0,0,0,0,0,0h0v0l0,0,0,0v0l0,0v0l0,0,0,0,0,0,0,0,0,0,0,0v0l0,0v0l0,0v-.06l0-.05v0l0-.05v-.05l0-.05,0-.06v-.09l0-.05v-.19l0,0v-.16l0-.05,0-.06v-.06l0-.05,0-.05,0,0,0-.05v-.09l0,0,0-.05v-.14l0-.05v-.35l0,0,0,0,0,0,0,0,0,0,0,0,0,0v0l0-.05h0l0-.05,0-.05,0,0,0-.05,0-.06,0-.05,0-.05,0-.05,0-.06,0-.06,0-.06,0-.05,0-.07,0-.05,0-.06,0-.05,0-.06,0-.06,0-.05,0,0,0,0v0h0l0,0,0-.05,0,0,0-.05,0,0,0-.05,0-.05,0-.06,0-.05,0-.06,0,0,0-.06,0-.06,0-.06v-.06l0-.06,0-.06V504l0-.05,0,0v-.05l0-.05v-.35l0,0v0l0-.05,0-.05,0,0,0-.05,0,0,0-.05,0,0h0l0,0v0l0,0,0-.05,0-.05,0,0v0l0,0,0,0,0,0v-.07l0,0v-.2h0v-.08h0l-.2,0,0-.14-.15,0,0-.15.16,0v0h0v0h0v-.08l0,0v0l0,0v-.06l0,0v-.68l-.2-.31-.25-.24-1.61-1.15-.75-1.59.27-2.33-.79-.82-1.64-.42-.79-1.94-.5-1.23.23-.16,1.34-.93.9-1.24.48-.6.27-.31.13-.59.08-.43v-2l0-.06v-.12l0-.06v-.1l0-.06,0-.06,0,0v-2.69h0v-1.24l0,0v-.06l0,0v-6.2h0v-.73l0-.05v-.14l0,0v-.14l0,0v-.14l0,0v-.27l0,0V472l0,0v-.13l0-.05v-.1l0-.05v0l0,0v0l0,0v0l0,0,0,0v0l0,0,0,0,0,0,0,0,0,0,0,0v0l0-.05,0,0v-.07l0-.05,0,0,0,0,0,0,0-.05,0,0,0,0,0-.05v0l0,0,0,0,0,0,0,0,0,0,0,0,0,0,0,0,0,0,0,0,0,0,0,0,0,0,0,0,0,0,0,0,0,0v-.06h0l0,0,0,0,0,0,0,0,0,0,0,0,0,0v0l0,0v0l0,0,0,0,0,0-.1-.14h0v-.06l0,0v0l0,0,0,0,0,0,0,0,0,0,0,0v0l0,0v0l0,0,0,0,0,0,0,0,0,0,0,0,0,0,0,0,0,0,0,0,0,0,0,0,0,0,0,0,0,0,0,0,0,0,0,0,0,0,0,0h0v0l0,0,0,0,0,0,0,0,0-.05,0,0,0,0,0,0,0,0-.05,0,0,0,0,0,0,0,0,0,0,0,0,0,0,0,0,0,0,0,0,0,0,0,0,0,0,0,0,0,0,0,0,0,0,0,0,0,0,0,0,0,0,0,0,0,0,0,0,0,0,0,0,0,0,0h0l0,0,0,0,0,0h0l0,0-.07,0,0,0h0l0,0h0l0,0,0,0,0,0h0l-.1-.05,0,0,0,0,0,0,0,0,0,0h0v0h-.07l0,0h0l0,0h-.24l0,0,0,0,0,0,0,0,0,0,0,0,0,0,0,0h0l0,0v0h0l-.17-.09h-.09l0,0-.08,0,0,0-.26-.15,0,0-.27-.14,0,0-.27-.15,0,0,0,0h-.3l0,0h0l0,0,0,0,0,0,0,0,0,0h-.06l0,0h0l0,0,0,0,0,0,0,0,0,0,0,0h-.14l0,0,0,0,0,0,0,0h0l0,0-.05,0-.08,0-.31-.17-.1-.06h0l-1.24-.7,0,0,0,0-.05,0,0,0,0,0h-.05l-.06,0h-.25l-.1,0-.1,0-.09,0-.09.05-.08.06L586,464l-.07.07-.06.09-.06.09,0,.06,0,.08,0,.07,0,.08,0,.07V465h0v0h0v.23l0,0v0l0,0v0h0v.12l0,0,0,0v0l0,0h0l0,0,0,0,0,0,0,0,0,0,0,0,0,0,0,0,0,0,0,0,0,0v.05l0,0,0,0,0,0v0l0,0,0,0v.07l0,0,0,.05,0,0v0l0,0v.05l0,0v0l0,0,0,0,0,0v0l0,.05v.08h0v0l0,0,0,0v0l0,0,0,0,0,0,0,0v0l0,0v.05l0,0v.05l0,0,0,0h0l0,0v0l0,0,0,0,0,0,0,.05,0,0,0,.06,0,.07,0,.06,0,.06,0,.06,0,.06,0,.05v0l0,.06,0,.06,0,.06,0,.05,0,.07,0,.06,0,.06,0,.05,0,.06,0,0,0,0v0l0,.05,0,0h0V469l0,0,0,.05,0,0,0,.05,0,.05,0,.06,0,.05v.06l0,.06v.21l0,0,0,0,0,.05,0,.05,0,.05,0,0,0,0,0,0v.07h0v0h0l-.11.07-.17.14-.09.07-.09.09h-.07l0,0,0,0,0,0,0,0,0,0,0,0,0,0,0,0,0,0,0,0,0,0h0l0,0,0,0h-.19l-.05,0,0,0-.06,0-.06,0-.06,0-.06,0-.06,0-.06,0-.06,0-.06,0-.06,0-.06,0-.06,0-.06,0-.06-.05-.05,0,0-.05,0-.05-.05-.05,0,0,0-.05,0-.06,0-.05,0-.06-.05-.05,0-.06,0-.06,0-.07,0-.06,0-.06,0-.07,0-.07,0-.07,0-.07,0-.07,0-.08,0-.06,0-.07,0-.06,0-.06,0-.07,0-.07,0-.07,0-.05v0l0,0,0,0v0l0-.11,0-.05-.08-.16,0,0,0,0,0-.06,0,0v0l0-.06,0,0v0l0-.06,0-.05v-.09l0-.05,0-.05v0l0,0,0-.05,0-.05,0,0,0,0,0-.05,0,0,0,0v-.05l0-.05,0,0,0,0,0,0,0,0,0,0v-.22l0,0,0,0,0,0,0,0h0l0,0h0l0,0,0,0,0,0,0,0,0,0v0l0,0,0-.05,0,0,0,0,0-.05,0,0v0l0,0v-.16l0-.05,0-.05v0l0,0v-.19l0,0,0,0,0,0h-.3l0,0,0,0,0,0,0,0,0,0v0l0,0,0,0h-.15l0,0,0,0,0,0,0,0,0,0h0l0,0h0l0,0h0l0,0,0,0,0,0,0,0v.68h0v0h0v0h0l-.09-.15h0V466h0v-.48l0,0,0,0v0l0,0,0,0h.16l0,0v-.18l0,0,0,0,0,0,0,0,0,0,0,0,0,0,0,0,0,0,0,0,0,0,0,0,0,0,0,0,0,0,0,0,0,0,0,0,0,0,0,0,0,0v-.06h0v-.05l0,0,0,0,0,0,0-.05,0,0,0,0,0-.05,0,0,0,0,0,0,0-.05,0-.05v0l0,0v0h0v0l0,0,0,0,0-.06,0,0,0,0v0l0-.06,0,0v-.09l0-.06,0,0,0,0,0,0,0-.05,0,0,0,0,0,0v0l0-.06v0l0,0,0,0,0,0,0,0,0,0v-.1l0,0,0,0v0l0-.05v-.11l0-.05,0,0,0,0,0,0,0-.06,0,0,0,0,0-.05,0-.06,0,0,0,0,0-.06,0-.05,0,0v0l0-.06v-.07l0-.06v-.2l0-.05,0,0,0,0,0-.06,0,0,0,0,0,0,0-.05,0,0v0l0,0,0-.06v-.09l0-.06,0-.05,0,0,0-.05,0-.06v-.15l0-.05,0,0,0-.06,0,0v-.09l0-.05,0,0v-.23l0,0,0,0,0,0,0,0,0,0,0,0,0,0,0,0,0,0h0l0,0h-.15l-.07,0-.22.11h-.35v0h0v0h0v0h0v0h.57l.07,0,.05,0,0-.05h0v0l0,0,0,0v0h0l0,0,0,0v0l0,0v-.21l0,0v0l0,0h0l0,0h0l0,0,0,0,0,0v0l0,0v-.05l0,0V458l0,0,0,0,0,0,0,0,0,0,0,0,0-.06,0-.05,0,0,0-.05,0-.06,0,0v0l0-.05v-.12l0,0,0,0v-.08l0-.05v-.15l0-.05v-.1l0,0,0-.06,0-.05,0,0,0-.05,0,0,0-.05v0l0,0,0-.06,0,0v-.09l0,0V456l0,0v0l0,0,0,0,0,0,0,0,0,0,0,0v-.52l0-.06,0-.06V455l0-.07,0-.06v-.21l0-.05v-.05l0-.06,0,0,0,0,0-.05,0-.06,0,0,0-.05,0-.06,0-.05,0,0,0-.06,0-.05,0,0,0-.05v-.06l0,0v-.05l0-.06v-.3l0,0v-.67h0v-.31h0v-.13l0,0v0l0,0h-.08l0,0h0l0,0-.17-.12h0l0,0-.06,0,0,0,0,0v0h0l0,0,0,0,0,0H577l0,0,0,0,0,0,0,0h-.06l-.05,0,0,0,0,0-.05,0,0,0,0,0,0,0,0,0,0,0,0,0,0,0,0,0,0,0,0,0,0-.05,0-.06-.06-.06-.05-.06-.06-.05-.05,0,0,0-.06-.06-.06-.05,0-.07-.05-.06,0-.07-.05-.07,0-.07,0-.07,0-.06,0-.07,0-.07-.05-.08,0-.08-.05-.07,0-.08,0-.08-.05-.08,0-.08,0-.09,0-.08,0-.09,0-.09,0-.08,0-.06v-.18l0-.06v-.06l0-.06,0-.05,0-.05v0l0,0,0,0h.09l0,0,0,0,.06,0,.06,0,.05,0,.06,0,.05,0,0,0,0,0,.05,0h.09l0,0,0,0,.05,0,0,0,0,0,0,0,0,0v0l0,0,0-.06,0-.06,0-.06,0,0,0,0,0-.06,0-.06,0-.06,0-.05,0-.05,0,0,0,0,0-.05,0,0-.06,0-.05,0-.06,0-.06,0-.07,0-.07,0-.07,0-.07,0-.08,0h-.08l-.07,0-.07,0h-.14l-.06,0h-.06l-.06,0-.06,0-.06,0h-.73l-.07,0-.08,0h-.08l-.07,0h-.18l-.06,0h-.22l-.3-.41-.81-1.07h.1l0,0H572l0,0h.1l0-.05h0l0,.05h.1l0,0h2.79v-.06h0v.06h.68l0,0h0l0,0,0,0h0l0,0h0l0,0h0v.06h.11l0,0,0,0,0,0h0l0,0,0,0h0l0,0,0,0,0,0,0,0,0,0,0,0,0,0,0,0,0,0,0,0,0,0,0,0,0,0,0,0,0,0,0,0,0,0,0,0,0,0h0l0,0,0,0,0,0,0,0,0,0,0,0,0,0,0,0,0,0,0,0,0,0,0,0,0,0,0,0,0,0,0,0,0,0,0,0,0,0,0,0,0,0,0,0,0,0,0,0,0,0,0,0,0,0,0,0,0,0,0,0,0,0v0l0,0,0,0v0l0,0,0,0,0,0,0,0,0,0,0,0h0l0,0,0,0h.83l0,0H579l0,0h0l0,0,0,0,0,0,0,0,0,0,0,0h0l0,0h.18l0,0h.13l0,0,0,0,0,0,0,0,0,0,0,0,0,0h0l0,0,0,0v0l0,0,0,0,0,0,0,0,0,0,0,0v-.05l0,0v-.12l0,0v-.09l0,0v-.06l0,0v-.08l0,0v0l0,0v0l0,0v0l0,0v0h.06v.17h0v0h0v0l0,0,0,0,0,.05,0,0,0,0,0,.05,0,.05,0,0,0,0,0,0,0,.05,0,.06v.21l0,0,0,0,0,0,0,0,0,.05,0,.06,0,.05,0,0,0,0,0,0,0,.05,0,0,0,0v0l0,.06,0,.05,0,.05,0,.05,0,0,0,0,.09,0h3.39l0,0h0l0,0h0v0l0,0v0h0v-.07l.07,0,.24.07h0l0,0h0l0,0h0v0h.07v0h1v0h1.32l0,0h0l.05,0,0,0h1.34l.06,0,.06,0,0,0,.06,0h.06l0,0h.16l0,0,0,0h0l.13,0h0l0,0h0l0,0,0,0h.06l0,0,0,0h0l0,0h.22l0,0,0,0,.05,0,0,0,.05,0,.06,0,0,0h.05l0,0h.08l.06,0,.05,0,.06,0,.06,0,0,0h.05l0,0h.13l0,0h0l0,0,0,0,0,0h0v0h.36l.07,0,.06,0,.07,0,.06,0h0l.14,0,.29-.12,0,0,0,0,0-.05,0-.06,0-.05,0,0,0-.05,0,0v-.16h.61l.05,0,.06,0,.05,0,0,0,0,0,.05,0,0,0,0,0,0,0,0-.05,0-.05,0-.05,0,0,0,0,0,0,0,0,.05,0,0,0,0,0,0,0,0-.05,0,0,0,0,0,0h.19l0,0,0,0,0,0,0,0,0,0,0,0,0,0,0,0,0,0,0,0,0,0,0,0,0,0,0,0,0,0,0,0,0,0,0-.05,0,0,0-.05,0,0,.06,0,0,0,.06,0,.06,0,.05,0,.06,0,.05,0,0,0,0,0,0,0,0,0,0,0,0-.05,0-.06,0-.06v-.46l0-.07v-.42l0-.06V443l0-.06,0-.07,0-.07v-.06l0-.07v-.07l0-.05v-.06l0-.06v-.27l0-.05,0,0,0,0,0,0,0,0,0,0,0,0,0,0H597l0,0h0l0,0v-.22l0,0,0,0,0,0,0,0,0,0,0,0,0,0v0l0,0v-.29l0,0h0l0,0h0v-.5h0V440h0v0h0v0h.05l0,0,0,0,0,0,0,0v-.35l0-.06v-.06l0-.07v-1.4l0-.06v-1.66l0-.05,0,0v-.52h0v-.73l0-.06,0-.06,0-.07v-.48l0-.06v-1.46l0-.07v-.41l0,0,0,0h0l0,0,0,0V432h.14l0,0,0,0,0,0v-3.54l0,0v0l0,0v-.06H597v-4.37h0v-.23h0v-1.89l0-.06v-.05l0-.05v-.6l0-.16,0-.27-.05-.25v-.11l0-.07v-.15l0-.08v-.08l0-.09v-.17l0-.09,0-.09v-.1l0-.18v-.34l0-.07v-.07l0-.07v-1.21l0,0,0,0,0,0,0,0,0,0,0,0,0,0,0,0,0-.05v-.17l0,0,0,0h-.06l0,0,0,0,0,0,0,0h-.12l0,0v0l0,0,0,0,0,0,0,0,.05,0,0,0,0,0v-.07l0,0,0,0,0,0,0,0,0,0,0-.06,0-.05,0-.06,0-.07,0-.07,0-.07,0-.07v-.07l0-.08,0-.07,0-.08,0-.08,0-.08,0-.08,0-.08,0-.05L614,393.1l7.64-9.29,1.05-.9.81-.9,4-4h0l2.18-2.72,1-1.69.42-.74.23-.52.14-.76.38-1.46.16-1.29v-.19l0-.5.13-.95.79-2.91.59-2.43.25-1.18.16-1,.12-.73.22-.88-6.62-2.28-1-4.61-.06-.29-.11-.51-.06-.31,0-.14,0-.21-.17-.8-.11-.59-.06-.3-.1-.46-.08-.44-.15-.7-.18-.89-.23-1.17-.12-.56-.14-.64,0-.19-.11-.47-.39-2-.45-2.21.17,0,.12,0,.18,0,.19,0,.61-.12.18,0,.17,0,.15,0,.09,0,.1,0,.11,0,.11,0,.1,0,.11,0,.11,0,.1,0,.11,0,.11,0,.09,0,.09,0,.22-.05.26-.05.47-.09.21-.05.24-.05.17,0,.21,0,.9-.18.1,0,.14,0,.13,0,.13,0,.31-.07.45-.09.77-.16.52-.1.48-.1.36-.07-.21-.41-.33-.7-.57-1.19,0-.11-.11-.22-.1-.22-.23-.47-.09-.19-.09-.19-.09-.18-.09-.19-.09-.19L631,332l-.09-.19-.09-.19-.06-.12,0-.11-.07-.14-.08-.15-.07-.15-.35-.77-.14-.29-.14-.29,0,0v0l-.07-.15-.07-.13-.07-.16-.08-.15-.14-.31-.15-.31-.15-.31-.14-.31-.15-.31-.15-.31-.36-.76.83-.2L630,326l2.17-.43.06.35.3.07Z"/><rect class="cls-5" x="349.42" y="13.12" width="471.86" height="572.63"/><path class="cls-7" d="M626.7,351.17l1,4.61,6.62,2.28-.22.88-.12.73-.16,1-.25,1.18-.59,2.43-.79,2.91-.13.95,0,.5v.19l-.16,1.29-.38,1.46-.14.76-.23.52-.42.74-1,1.69L627.48,378h0l-4,4-.81.9-1.05.9L614,393.1l-18.53,22.16v0l0-.07,0-.08,0-.08,0-.08,0-.08,0-.08v-.09l0,0v-.07l0-.08,0-.08v-.16l0-.09v-.08l0-.08v-.08l0-.08,0-.08v-.51l0-.08,0-.08,0-.08,0-.09,0-.08,0-.08,0-.09,0-.08,0-.08,0-.08,0-.08,0-.08,0-.07,0-.06,0-.06,0-.07,0-.07,0-.08,0-.08,0-.09,0-.08,0-.09,0-.08,0-.08V411l0-.06,0-.06,0-.06,0-.06,0-.06,0-.06,0-.07,0-.08,0-.07,0-.08,0-.07,0-.08,0-.08,0-.08,0-.08,0-.08,0-.08,0-.08,0-.08,0-.08,0-.08,0-.08,0-.09,0-.08,0-.09,0-.09,0-.09,0-.08,0-.09,0-.08,0-.09,0-.08,0-.09,0-.08,0-.08,0-.09,0-.07,0-.08,0-.07,0-.08,0-.07,0-.07,0-.07,0-.07,0-.07,0-.08,0-.07,0-.08,0-.07,0-.07,0-.08,0-.06,0-.07,0,0v0h0v-.09l0,0,0-.07v-.27l0-.06,0-.07,0-.07,0-.07,0-.07,0-.07,0-.07,0-.07,0-.06,0-.07,0-.06,0-.07,0-.07,0-.06,0-.05v-.05l0,0,0-.05,0-.06,0-.07,0-.07,0-.06,0-.07,0-.07,0-.06,0-.06,0-.06,0-.07v-.27l0-.07,0-.07v-.07l0-.07,0-.06v-.05l0-.05,0,0,0,0,0,0,0,0h0l-.16-.3,0,0,0,0,0,0,0,0,0,0,0,0,0-.06,0,0,0,0,0,0,0-.05,0-.05,0,0,0,0,0-.05,0-.05,0-.06,0,0,0-.06,0,0,0-.05,0-.05,0-.06,0-.05,0-.06,0,0,0-.05,0-.06,0-.05,0,0,0,0,0-.05,0-.06,0-.05,0-.05,0,0,0-.05,0-.05,0-.05,0-.06,0-.06,0,0,0-.05,0-.06,0-.05,0-.05,0-.05,0-.06,0-.06,0,0,0,0,0-.06,0-.06,0-.05,0,0,0-.06,0-.05,0-.05,0-.05,0-.06,0-.05,0,0-.05,0,0-.05,0-.06,0-.05,0,0,0-.05,0-.06,0-.05,0-.05,0,0,0-.06,0-.05,0-.05,0-.06,0-.06,0-.05,0,0,0-.05,0-.06,0-.05,0,0,0,0,0-.05,0-.06,0-.05,0-.05,0,0,0-.06,0-.05,0-.05,0-.05,0-.05,0,0,0-.05,0-.05,0-.06,0-.05,0-.05,0,0,0-.06,0-.06v-.05l0-.06,0-.06,0,0,0,0,0-.06,0-.06,0-.05,0-.05,0-.06,0-.05v-.05h0v-.11l0,0,0,0,0,0,0,0,0,0,0,0,0,0,0,0,0,0,0,0,0,0,0,0,0,0,0,0,0,0,0,0,0,0,0,0,0,0,0,0,0,0,0,0,0,0,0-.05,0,0,0,0,0,0,0-.05,0-.05,0,0,0,0,0,0,0,0,0,0,0,0,0,0,0,0,0-.05,0-.06,0,0,0,0,0,0,0-.05,0,0,0,0,0,0,0,0,0,0,0-.06,0,0,0,0,0,0,0,0,0-.05,0,0,0,0,0,0,0-.06,0,0,0,0,0,0,0,0,0-.05,0,0,0,0,0,0,0-.05,0-.05,0,0,0,0,0,0,0,0,0-.05,0-.05,0,0,0,0,0-.05,0,0,0-.05,0,0,0,0,0,0,0-.05,0,0,0,0,0,0,0-.05,0-.05,0,0,0,0,0,0v-.05l0,0v-.22l0,0v0l0,0,0,0,0,0,0,0,0,0,0,0,0,0,0,0,0,0,0,0,0,0,0,0,0,0,0,0,0,0,0,0,0,0,0,0,0,0,0,0,0,0,0,0,0,0,0,0,0,0,0,0,0,0,0,0,0,0,0,0,0,0,0,0,0,0,0,0h0l0,0,0,0,0,0,0,0,0,0,0,0,0,0,0,0,0,0,0,0,0,0,0,0,0,0,0,0,0,0,0,0,0,0,0,0,0,0,0,0,0,0,0,0,0,0,0,0,0,0,0,0,0,0h0l0,0,0,0,0,0,0,0,0,0,0,0,0,0,0,0,0,0,0,0,0,0,0,0,0,0,0,0,0,0,0,0,0,0,0,0,0,0,0,0,0,0,0,0,0,0,0,0,0,0,0,0,0,0,0,0,0,0,0,0,0,0,0,0,0,0,0,0,0,0,0,0,0,0,0,0,0,0,0,0,0,0,0,0,0,0,0,0,0,0,0,0,0,0,0,0,0,0,0,0,0,0,0,0,0,0,0,0,0,0,0,0,0,0,0,0,0,0,0,0,0,0,0,0,0,0,0,0,0,0v-.2l0,0v0l0,0v0h0v-.08h-.94l0,0h-.36l0,0,0,0,0,0,0,0,0,0,0,0,0,0,0,0,0,0,0,0,0,0,0,0,0,0v-.31l0,0,0,0v0l0,0h0l0-.05h0v0l0,0,0,0,0,0v-.07h0v-.11h-.09l0,0v0l0,0,0,0,0,0,0-.05,0,0,0-.05,0-.05,0,0,0,0,0,0,0-.05,0,0,0,0v-.08l0-.05,0,0v-.05l0,0v0l0-.05v0l0,0,0,0v0l0,0v-.05l0,0v-.08l0,0v0l0-.05v-.05l0-.05v-.09l0,0v-.13l0,0v-.05l0-.05V386l0-.05v-.05l0,0v0l0-.05v0l0,0v0l0,0v0l0,0,0-.05v0l0,0,0,0v-.09l0,0v-.16l0,0V385l0,0v0l0,0v0l0,0v-.15l0-.05v-.35l0,0,0,0,0,0,0,0,0,0,0,0,0,0,0,0,0,0h-.1l0,0,0,0,0,0h-.43l0,0h-.13l0,0h-.42l0,0h-.45l0,0H576l-.06,0h-.1l-.05,0h-.07l-.05,0h0l-.06,0-.06,0,0,0h-.05l0,0h-.09l0,0,0,0,0,0,0,0,0,0,0,0,0,0,0,0,0,0,0,0,0,0,0,0,0,0,0,0h0l0,0v.44h0V386h0v.32l0,0,0,0,0,0v.08l0,0,0,0,0,0,0,0,0,0,0,0,0,0,0,0,0,0,0,0v0l0,0,0,0v0l0,0,0,0,0,0,0,0,0,0,0,0,0,0h0l0,0h0l0,0h0l0,0h-.2l0,0,0,0,0,0-.05,0h0l0,0,0,0h0l0,0-.05,0,0,0,0,0,0,0,0,0,0,0,0,0,0,0-.05,0,0,0,0,0,0,0,0,0,0,0,0,0,0,0,0,0,0,0,0,0,0,0,0,0,0,0,0,0,0,0,0,0,0,0,0,0,0,0,0,0,0,0,0,0,0,0,0,0h-.19l0,0,0,0,0,0h0l0,0,0,0,0,0,0,0,0,0,0,0h0l-.18-.13,0,0,0,0,0,0,0,0,0,0,0,0,0,0,0,0,0,0,0,0,0,0,0,0,0,0,0,0,0,0,0,0,0,0h-.13l0,0h0l0,0h-.35l0,0h0l0,0,0,0h-.17l0,0h-.66v0l0,0,0,0v0l0,0v.25l-.08.11-.22-.14,0-.15h0v-.09l0,0,0,0,0,0,0,0V385h0l0,0,0,0,.19-.39,0,0h.22l0,0,0,0,0,0,0,0,0,0,0,0H570l0,0v0l0,0,0,0,0,0,0,0h.34l0,0h.58l0,0h.11l0,0h.19l0,0,0,0h.18V384h.55l0,.17v0h.11l0,0,0,0,0,0h.14l0,0,0,0,.05,0,0,0,.05,0,0,0,0,0h.05l0,0h.11l.05,0,.06,0,0,0,.05,0,0,0,0,0,0,0,0,0,0,0,0,0,0,0,0,0,0,0,0,0,0,0,0,0,0,0,0,0,0,0,0,0,0,0,0,0,0,0,0,0,0,0h0l0,0,0,0,0,0,0,0,0,0,0,0,0,0h0l0,0,0,0,0,0h.25l0,0,0,0,0,0h.22l0,0,0,0h.05l0,0h0l0,0h.15l0,0h.22l0,0H576l0,0,0,0,0,0h.05l0,0,0,0h0l0,0,0,0,0,0,0,0,0,0,0,0,0,0,0,0,0,0h.2l0,0,0,0,0,0H577l0,0h0l0,0,0,0,0,0,0,0,0,0,0,0,0,0,0,0,0,0,0,0,0,0v-.08l0,0,0,0,0,0,0-.05,0,0,0-.05v0l0,0v-1.44h0v0h0v-.12h0v0h0v0h0v-.15h0v-.17h0l0-.1,0-.09,0-.1,0-.09,0-.1,0-.1h0l0-.07,0-.07,0-.07,0-.07,0-.07,0-.07h0l0-.07v-.08l0-.08,0-.07,0-.07,0-.06h0l0-.07,0-.07,0-.08v-.08l0-.08,0-.08h0l0,0,0-.05,0-.05v-.05l0-.05,0,0h0l0-.07,0-.07,0-.07v-.07l0-.06,0-.07h0l0-.1,0-.09,0-.09,0-.1,0-.09,0-.1h0l0-.08,0-.08,0-.09,0-.08,0-.08,0-.08h0v0h0l0-.07,0-.08,0-.07,0-.07,0-.06,0-.07,0-.09,0-.08-.05-.09,0-.08,0-.09,0-.09h0l0-.06,0-.07,0-.06,0-.05,0-.06,0-.06h0l0-.06,0-.06,0-.06,0-.06,0-.06,0-.07h0l0-.06,0-.06,0-.06,0-.06,0,0,0-.06h0l0-.06,0-.06,0-.06,0-.06,0-.06,0-.06h0l-.05-.09-.06-.08-.06-.08-.06-.08,0-.09-.05-.09h0l0-.09,0-.08,0-.08,0-.08,0-.08,0-.09h0l0-.07,0-.06,0-.06,0-.06,0-.06,0-.06h0l0-.07,0-.06-.05-.06,0-.06,0-.06,0-.07h0l0-.09,0-.07-.05-.08-.06-.07-.06-.07,0-.07-.06-.09-.07-.1-.06-.09-.06-.09-.06-.1-.06-.1h0l0-.09-.05-.09-.06-.09-.05-.08,0-.09-.06-.09,0-.06,0-.06,0-.06,0-.06,0-.06,0,0v0h0l0-.05,0-.06,0-.05,0,0,0-.06,0-.05-.18-.3,0,0,0,0,0-.05,0,0,0-.05,0-.05,0-.06,0-.05,0-.05,0-.06,0,0v0l0,0,0,0,0-.05,0-.05,0-.05,0-.05,0,0,0-.05,0-.05,0-.05,0-.05,0,0,0,0,0-.05,0,0,0-.06,0-.05,0,0,0,0,0,0,0-.05,0,0,0,0,0-.05,0-.05v0l-.17-.29h0l0,0,0-.06,0-.07,0-.07,0-.06-.05-.06,0-.06,0-.07-.05-.06,0,0,0,0,0-.05,0-.06-.05-.06,0-.06,0,0v0h0l0,0,0,0,0-.07-.05-.06,0-.06,0-.07-.05-.07-.06-.06-.05,0,0,0,0-.05-.06,0,0-.05-.05-.05,0-.07,0-.06,0-.06,0-.07,0-.07-.06-.06,0-.06-.05-.06-.06-.05-.06-.05-.06,0-.05-.05,0-.07,0-.07-.05-.06,0-.06-.06-.06,0-.05,0-.05-.06-.06-.07-.05-.06,0-.07-.05-.06-.05-.06-.05-.05-.05-.06,0-.06,0,0,0-.2-.17-.09-.09h0l-.21-.17-.21-.17-.09-.08-.11-.09-.2-.19-.06-.05-.15-.12h0l-.11-.09-.11-.09-.08-.1-.07-.12h0l-.07-.12-.1-.1L566,361l-.12-.07-.12-.08-.12-.08-.11-.08-.12-.07-.12-.07-.11-.07-.09-.1-.06-.12h0l0,0-.31-.41-.14-.11-.22-.14-.22-.14-.19-.15-.09-.09-.08-.08-.09-.08-.08-.08-.08-.09-.09-.08-.12-.12-.12-.12-.13-.12-.12-.12-.13-.11-.12-.12-.26-.2-.14-.11-.5-.34-.12-.08-.17-.12.53-1.29.1-.23.44-1.07v0l.22-.53.74-1.82.79-1.89.5-1.24.26-.62v0l.35-.84.47-1.14.46-1.16.44-1.11.05-.11,0-.12.05-.12.06-.11.05-.11.06-.11.06-.11.06-.11.07-.11.06-.11,0,0,.05-.08.07-.09.07-.1.07-.09.08-.09.07-.09h0l.08-.09.08-.09,0,0,0,0,.08-.08.08-.08,0,0,.06-.05.08-.07.08-.07.09-.07.08-.07.09-.06.08-.07.09-.06.09-.06.11-.08.11-.08.12-.07.12-.07.11-.06.12-.06.12-.06.13-.05.12-.05.13-.05.09,0,.09,0,.09,0,.09,0,.1,0,.09,0,.09,0,.09,0h.19l.6-.34.08,0,.07,0,.1,0,.1,0,.1,0,.1,0,.1,0,.1,0,.1,0,.1-.05.1,0,.07,0,.08,0,.07,0,.08,0,.07,0,0,0,.08,0,.08,0,.08-.05.08,0,.08,0,.08-.05.22-.14,0,0,.06,0,.05,0,0,0,0,0,.05,0,0,0,0,0,0,0,0,0,0,0,0-.05.05-.05,0-.05,0-.05.05,0,0-.05,0-.05,0-.05,0-.06,0-.05,0,0,0,0,0,0,0,0,0-.05,0,0,0,0,0,0,0-.05,0,0,0-.05,0,0,0-.05,0,0,0-.05,0-.05,0,0,0,0,0,0,0-.05,0-.05.07-.16,0,0,.05-.13.88-3.28.95-3,.34-1.53.21-.87-.05-1,0-.77-.1-.79-.21-1.29,0-.17,0-.12-.31-1.61,0-.12-.18-.92-.85-4.24.15,0,.29-.07h0l1-.19.83-.17,1.26-.25.12,0,1.11-.22,1-.21.9-.18.25-.05.12,0h.08l.22,0,3.61-.74.33-.07.64-.13.93-.19,1-.21.25,0,.43-.08h0l.24,0,.3-.06.33-.07.56-.12.55-.11.64-.13.64-.13.2,0,.39-.07.42-.09h0l3.22-.66h0l.22-.05.32-.07.64-.13.92-.18,1-.2.72-.15.13,0,.35-.08h0l.31-.06.17,0,.13,0h0l.5-.1.49-.09.14,0,.37-.08.21,0,.53-.11.62-.13.49-.1h0l.35-.08-.32-1.64-.35-1.68-1-4.79-.41-2.18-2.39-.42-2.33-.42-2-.37-2.61-.48L595,297l-.39-2.16,1.5-1,.06-.36-.69-3.51-.66-3.2-.52-2.57-.4-2-.41-2-.56-2.79-.14-.69-.27-.08-.2-.05-.65-.18-.07,0-.45-.12-.12,0-.24-.07-.2-.06-.12,0-.37-.08-.34-.1-.56-.15-.1,0h0l-.3-.08-.64-.17-.6-.16-.15,0-.09,0h-.51l-.09-.43-.14-.68,0-.2-.17-.8,0-.1.38-.15,3-2.3,1.62-1.25,1.16-.92,3.37-2.65,1.58-1.23.74-.57,1.33-1.05.53-.41.4-.31,2-1.61,1.85-1.45,1.38-1.07.13-.11.05,0,.8-.63.08-.07.34-.27.13-.1.14-.11.23-.18.22-.18.17-.13.3-.24.14-.11,1.28-1,1-.76.29-.23.76-.59.25-.2.09-.06.76-.6,1.86-1.45.28-.22.37.15h0l.13.05.14.06.95.34.07,0,.16.06,1.15.42.54.2h0l.2.07,1,.38.06,0,.3.1.19.06.33.12.06,0h0l.75.27.76.28h0l.48.18.12,0,.08,0,.26.09.23.09.07,0,.25.09,0,0,.26.07,1.28.47,0,0,.3.11.27.11,1.64.61.36.14.26.1.18.06.65.24.9.34h0l.53.2.23.08.65.24.24.09.15,0,.19.07.36.13.11,0,.34.11h0l1.66.63.27.1.33.12.23.09.5.18.07,0,1.25.45.1,0,.2.08.36.13.7.27.23.09.26.09.22.09.12,0,.43.15.31.11.5.17,1.21.45.15.05.13,0,.31.11.14.05.15.06.89.32.31.11,1,.38.22.08.54.19.24.08.2.07.22.08.07,0,.3.1.13.05.13.05.12,0,.13,0,.13.05.13.05.12,0,.13.05.13.05.13,0,.21.08.45.16.17.07.31.11h0l1.28.47.2.07.22.08h0l.34.13.41.15.25.09.31.12.18.06,1,.37.16.06.16.06.2.07.21.07.14.06h0l.34,0,.14.05.4.15h0l.09,0,.17.06.78.3.54.19,0,0,.07,0,.06,0,.06,0,0,0h0l.2.13.42-.06.69,0h0l.09.42.51,2.9.64,3.21.21,1,.36,1.74.29,1.47.35,1.72,0,.18.32,1.62.69,3.38.55,2.7.26,1.26.29,1.42.28,1.44.62,3,.6,3,.58,2.82.24,1.26.95,4.69.67,3.31.69,3.35.52,2.56.33,1.59.09.5.77-.74,1.55-1.35,2.37-2.12,2.3-2.05.55-.5.07.37,3.2-.59,0,.18,1.46-.3.71,3.48,10.1-2-1.06,4.42-.84,3-1,1.58-1.49,1.58L681,325.7l-1.18.79-6.13,4.27-1.46,1.3-1,1-.81.76L669.27,335l-2.13,2.31-1.26,1.54L663.74,342l-.55.67-.35.44-1.21,1.53-.06-.08-.42-.5-.43-.51-.35-.44-.21-.25-.28-.33-.26-.36-.29-.42-.35-.57-.27-.51-.27-.53-.16-.38-.12-.28-.08-.2L658,339l-.06-.16-.05-.15-.12-.37,0-.18-.07-.28-.06-.21,0-.16-.08-.34,0-.27,0-.22-.49-2.07-.6-2.92-.39-1.92-.19-.93-1,.2-.21-.09-.21-.08-.17-.05-.16,0-.16,0-.32-.06-.31,0-1.15-.2-.24.39-.11,0h-.06V329l.11.52-.47-.1L632.53,326l-.3-.07-.06-.35L630,326l-.88.17-.83.2.36.76.15.31.15.31.14.31.15.31.15.31.14.31.08.15.07.16.07.13.07.15v0l0,0,.14.29.14.29.35.77.07.15.08.15.07.14,0,.11.06.12.09.19.09.19.09.19.09.19.09.19.09.18.09.19.09.19.23.47.1.22.11.22,0,.11.57,1.19.33.7.21.41-.36.07-.48.1-.52.1-.77.16-.45.09-.31.07-.13,0-.13,0-.14,0-.1,0-.9.18-.21,0-.17,0-.24.05-.21.05-.47.09-.26.05-.22.05-.09,0-.09,0-.11,0-.11,0-.1,0-.11,0-.11,0-.1,0-.11,0-.11,0-.1,0-.09,0-.15,0-.17,0-.18,0-.61.12-.19,0-.18,0-.12,0-.17,0,.45,2.21.39,2,.11.47,0,.19.14.64.12.56.23,1.17.18.89.15.7.08.44.1.46.06.3.11.59.17.8,0,.21,0,.14.06.31.11.51Z"/><rect class="cls-5" x="349.42" y="13.12" width="471.86" height="572.63"/><path class="cls-8" d="M724.9,201.88l73.88,55.52L724.22,385.57h0l-.1,0-.09,0-.13,0-.6.15h-.6l-.23-.06-.09,0-.1,0-.09,0-.09-.05-.09-.06-.09-.06-.08-.06-.08-.07-.39-.34-.71-.65-1.11-1-.32-.29-.51-.47-.71-.66-.09-.08-.09-.08-.09-.08-.09-.08-.09-.09-.09-.08-.08-.08-.09-.08-.09-.08-.09-.08L717,381l-.14-.12-.13-.12-.13-.13-.13-.13-.13-.13-.2-.21-.17-.19-.12-.14,0,0-.13-.16-.22-.27-.3-.32-.14-.18,0,0-.17-.2-.17-.2-.17-.2-.17-.2-.17-.2-.13-.15-.14-.15-.13-.16-.13-.15-.12-.16-.13-.16-.13-.16-.12-.16-.13-.16-.12-.17-.11-.15-.12-.16-.12-.15-.11-.15-.12-.16-.11-.15-.12-.16-.11-.15-.12-.16-.11-.15-.1-.14,0,0-.11-.15h0l-.13-.17-.1-.14-.14-.19-.13-.17-.12-.16-.12-.17-.13-.16-.12-.17-.06-.08-.14-.19-.14-.2-.05-.08-.06-.08-.05-.08,0-.08-.07-.12h0l-.12-.2,0-.05-.07-.13,0-.05,0-.08-.07-.13-.07-.14-.07-.13-.06-.14-.06-.13-.09-.19-.08-.2-.07-.19-.07-.2-.07-.2v0l-.06-.16-.06-.2v-.05l0-.15,0-.21,0-.07,0-.13-.21-1.23-.18-1.08,0-.33h0l0-.28h0l-.11,0-.1-.05h0l-.1-.05-.1-.06-.09-.06-.1-.06-.1-.06-.09-.07-.09-.07-.16-.13-.16-.14-.15-.13-.24-.46-.21-.39-.11-.18-.68-1.21v0l-.23-.37,0,0,0,0h0l0,0,0,0,0,0,0,0,0,0,0,0,0,0,0,0,0,0,0-.08,0-.08-.05-.08,0-.08,0-.08-.05-.08-.26-.36-.1-.13-.39-.53-.07-.09,0-.05-.11-.14-.1-.14-.1-.14-.11-.15-.1-.14-.1-.14-.11-.14-.1-.14-.1-.14-.09-.12-.09-.12-.09-.12-.09-.12,0-.06-.39-.54L702,358l-.06-.07-.05-.08-.06-.07-.05-.08-.06-.07-.05-.08,0-.07,0,0,0,0-.05-.08,0-.08-.08-.11-.07-.12-.06-.13-.06-.12-.06-.13,0,0,0-.1-.05-.12h0l0-.13,0-.05,0-.08,0-.14,0-.13,0-.14,0-.14,0-.15,0-.14,0-.14v-1.29l0-.12v-.11l0-.12,0-.11.06-.28V353l0-.08v-.25l0-.09v-.33l0-.14V351h0v-.46l0-.16v-.06l0-.1,0-.16,0-.16,0-.16,0-.16,0-.16,0-.16,0-.16-.05-.17,0-.16,0-.16-.06-.17,0-.12v0l-.06-.16h0l0-.14-.05-.11,0-.05-.07-.16-.06-.13-.07-.14-.07-.13-.07-.14-.07-.13-.08-.13-.08-.13-.08-.13-.08-.13-.08-.12-.27-.39-.16-.23-.11-.18v0l-.17-.25-.23-.36,0-.06,0-.06,0-.07v0l0,0,0-.07,0-.07,0-.07v-.21l-.2-1-.1-.49,0-.19,0-.21h0l-.18-.91,0-.24-.19-.89,0-.08-.16-.84,0-.19,0-.16v0l-.19-.91-.14-.69v-.08l0-.19,0-.2-.19-.95,0-.17-.1-.5,0-.16,0-.15,0-.07-.21-1.07,0-.16-.07-.34-.09-.48,0-.05v-.11l0-.06,0-.06,0-.06,0-.05,0-.06-.13.14,0,0-.51.54-.58.63-.44.48-.16.1-.17.11-.17-.33-.24-.1-.07,0-.51-.21-.5-.21-.64-.26-.36-.15-.21-.09-.2-.08-.14-.06-.14-.06-.14-.06-.14-.06-.14-.06-.14-.06-.14-.05-.14-.06-.15-.05-.06,0-.35-.14-.13-.06-.13-.06-.14,0-.13-.06-.15-.07-.14-.06-.15-.07-.13-.07-.11-.08-.29-.23-.62-.28-.16-.08-.17-.09-.32-.15-.25-.12-.23-.11-.35-.16-.45-.25-.07,0-.07-.06-.08-.06-.16-.15-.11-.13,0,0,0,0,0,0-.14-.21-.14-.21-.13-.21-.13-.21-.39-.61,0-.07-.15-.23L681,325.7l6.05-4.16,1.49-1.58,1-1.58.84-3,1.06-4.42-10.1,2-.71-3.48-1.46.3,0-.18-3.2.59-.07-.37-.55.5-2.3,2.05-2.37,2.12-1.55,1.35-.77.74-.09-.5-.33-1.59-.52-2.56-.69-3.35-.67-3.31-.95-4.69-.24-1.26-.58-2.82-.6-3-.62-3-.28-1.44-.29-1.42-.26-1.26-.55-2.7-.69-3.38-.32-1.62,0-.18-.35-1.72-.29-1.47-.36-1.74-.21-1-.64-3.21-.51-2.9-.09-.42.82,0h1.34l.79,0,.95.05h.19l.21,0h.07l.83,0,1.32,0,.56,0,.92.05h0l.27.05.35,0,1,0,1,.05.88.05.2,0h.3l.89,0,.41,0H672l.38,0h1.09l.26,0h.17l.4,0,.79.05.47,0h.39l.46,0h.22l.25,0,.93,0,.53,0h.44l.56,0,.71,0h.23l.23,0h.33l1,.06h.4l.36,0,.25,0h2.56l.3,0h.61l.46,0,.49,0,.35,0h.27l.65,0h.12l2.26-.2.92-.09.71-.05.92-.06.75-.08.8-.05h.28l.27,0,4.11-.39-.12-1.06-.08-.38-.11-.46-.34-.9-.43-.95-.45-1-.26-.73-.15-.55-.06-.49.07-.74.11-.9.26-1,.42-1.1,2-5.17.7-2.81.36-1.94.27-3,.3-2.36.22-1.79.18-1,.18-1L703,236V236l.4-1.35.41-1.82,1.32-3.6.65-1.76.31-1.37.12-.9.08-.89v-.83l-.13-1.5-.31-2-.22-1.41v-.7l0-.25.12-.36.19-.31.24-.31,0-.05.31-.31.34-.27.63-.31.63-.21,1.31-.32L710,215l.34-.09,4.77-1,1.75-.46.93-.34.29-.17.37-.26.4-.33.32-.37.55-.64,1.62-2.57.8-1.31.25-.42.27-.55.32-.64.67-1.35.13-.27.19-.38.4-.84v0l.35-.68Z"/><rect class="cls-5" x="349.42" y="13.12" width="471.86" height="572.63"/><path class="cls-9" d="M577.4,330.87l-.95,3-.88,3.28-.05.13,0,0-.07.16,0,.05,0,.05,0,0,0,0,0,0,0,.05,0,.05,0,0,0,.05,0,0,0,.05,0,0,0,.05,0,0,0,0,0,0,0,.05,0,0,0,0,0,0,0,0,0,.05,0,.06,0,.05,0,.05,0,.05-.05,0,0,.05,0,.05-.05.05,0,.05,0,0,0,0,0,0,0,0,0,0-.05,0,0,0,0,0-.05,0-.06,0,0,0-.22.14-.08.05-.08,0-.08,0-.08.05-.08,0-.08,0,0,0-.07,0-.08,0-.07,0-.08,0-.07,0-.1,0-.1.05-.1,0-.1,0-.1,0-.1,0-.1,0-.1,0-.1,0-.07,0-.08,0-.6.34h-.19l-.09,0-.09,0-.09,0-.1,0-.09,0-.09,0-.09,0-.09,0-.13.05-.12.05-.13.05-.12.06-.12.06-.11.06-.12.07-.12.07-.11.08-.11.08-.09.06-.09.06-.08.07-.09.06-.08.07-.09.07-.08.07-.08.07-.06.05,0,0-.08.08-.08.08,0,0,0,0-.08.09-.08.09h0l-.07.09-.08.09-.07.09-.07.1-.07.09-.05.08,0,0-.06.11-.07.11-.06.11-.06.11-.06.11-.05.11-.06.11-.05.12,0,.12-.05.11-.44,1.11-.46,1.16-.47,1.14-.35.84v0l-.26.62-.5,1.24-.79,1.89-.74,1.82-.22.53v0l-.44,1.07-.1.23-.53,1.29-.28-.18-.12-.09-.13-.09-.14-.09-.13-.09-.13-.1-.13-.09-.13-.09-.13-.08-.12-.08-.12-.08-.13-.08-.12-.08-.12-.08-.08-.06-.09-.05-.08-.06-.08-.05-.08-.06-.08,0-.11-.08-.11-.09-.11-.08-.11-.09-.11-.08-.11-.08-.07-.05-.08-.05-.08,0-.07,0-.08-.06-.06-.05h-.05l0,0,0,0,0,0,0,0,0,0,0,0,0,0,0,0h-.05l0,0,0,0-.05,0h0l0,0h-.77l0,0h0l0,0h0l0,0h-.07l0,0,0,0,0,0h0l0,0,0,0,0,0,0,0h0l0,0h0l0,0,0,0,0,0,0,0v0l0,0h-.05l0,0,0,0,0,0,0,0,0,0,0,0,0,0,0,0,0,0,0,0,0,0,0,0,0,.05,0,0,0,0-.05.05,0,0-.32.48h0l0,0,0,0,0,0,0,0,0,0v.05h0v.17h0v0h0v0h0v0h0v0h0v0h0v0h0v0h0v0h0v0h0v0h0v0h0v0h0v0h0v0h0v0h0v0h0v0h0l0,0v0l0,0v0l0,0,0,0h.61v0h0v0h0l0,0h.06v0h0l0,0h0v0h.19v0h0v0l0,0h.5V359h0v0h0v0h0v.12h0v0h0v.13h0v0h0v0h0v0h0v0h0v0h0v0h0v.19h0v0h0v0h0v0h0v0h0v0h0v0h0v0h0v0h0v0h0v0h0v0h0v0h0v.16h0v0h0v0h0v.06h0v.06h0v0h0v0h0v.16h0v0h0v0h0v0h0v0h0v0h0v0h0v0h0v0h0v0h0v0h0v0h0v0h0v0h0v0h0v0h0v0h0v0h0v.14h0v0h0v0h0v0h0v0h0v0h0v0h.05v0h0v0h0v0h0v0h0v0h0v0h0v0h.08v0h.07v0h0v0H558v0h0v0h0v0h0v0h0v0h0v0h0v0h0v0h0v0h0v0h0v0h0v0h0v0h0v0h0v0h0v0h0v0h0v0h0v0h0v0h0v0h0v0h0v0h-.06v0h-.08v0h0v0l0,0v0l0,0,0,0,0,0,0,0,0,0,0,0,0,0,0,0,0,0,0,0-.05,0,0,0,0,0,0,0,0,0,0,0,0,0,0,0h0l-.05,0,0,0,0,0,0,0,0,0-.05,0,0,0-.05,0,0,0-.06,0-.05,0,0,0-.06,0,0,0-.05,0,0,0,0,0-.05,0,0,0-.05,0,0,0-.06,0-.05,0,0,0-.06,0,0,0,0,0-.05,0h0l0,0,0,0,0,0,0,0,0,0,0,0,0,0,0,0,0,0,0,0,0,0,0,0,0,0-.06,0-.07,0-.1.05-.14.09-.1.07,0,0,0,0h0l0,0,0,0h0l0,0,0,0-.07,0,0,0,0,0h0l0,0h0l0,0,0,0h0v0l0,0h0v0l-.06.06,0,0,0,0,0,0h-.21l0,0,0,0,0,0,0,0h-.75l0,0-.05,0h0l0,0-.05,0h0l-.05,0h-.1l0,0H552l0,0h-.09l0,0,0,0,0,0-.05,0h-.1l0,0,0,0,0,0h0l0,0h-.14l0,0,0,0,0,0,0,0H551l0,0,0,0,0,0,0,0,0,0v0h0l0,0h0l0,0,0,0,0,0,0,0,0,0,0,0,0,0,0,0,0,0,0-.05,0,0,0,0h0l0,0h0l0,0,0,0,0,0,0,0,0,0,0,0-.19-.24h0l-.13-.18-.14-.2h0l0-.07h0l-.21-.29-.37-.54-.48-.68,0,0,0,0-.48-.7h0l0-.06,0,0,0,0-.12-.19h0v0l0,0h0l0,0,0,0v0h0l0,0,0,0,0,0h0l0,0,0,0,0,0,0,0v-.09l0,0,0-.05v-.06l0,0v0l0-.06h0l0,0,0-.05,0,0h0v0l0,0,0,0h0v0l0,0v-.19l0-.05v-.17l0-.06v-.06l0-.07v-.19l0-.07v-.57l0-.07v-.18l0-.06v-1.59h0v0h0V357h0v-1.44h0v-.32h0V355l0-.06,0-.07v-.1l0-.05,0-.07,0-.07v-.06l0-.06,0-.06,0-.06h0l0,0,0-.06,0-.05h0v0l0-.05,0-.06v0l0-.05,0-.06,0-.05,0-.05,0-.06,0-.05,0-.06,0-.05,0,0,0,0,0-.05h0l0,0,0-.06,0,0v0l0,0h0l0,0,0,0v0l0-.06,0,0,0,0,0,0,0,0,0,0,0,0,0,0h0l0,0,0,0,0,0,0,0,0-.05-.05-.05,0-.05-.05,0,0-.06-.06-.07-.06-.06-.06-.06,0-.05,0,0,0,0,0,0,0,0,0,0,0,0,0-.05-.06-.06,0,0,0,0,0,0,0,0,0,0,0,0,0-.05h0l-.06-.07,0,0,0,0-.07-.06,0-.05,0,0-.06-.06,0-.07-.05-.06h0l0-.05-.05-.06,0,0,0,0,0-.05-.05-.06,0-.06,0,0,0,0,0-.05h0l0-.06-.05-.05-.06-.05-.05-.06,0-.05-.05-.06-.07-.06-.06,0h0l0,0,0,0-.07-.06,0,0,0,0,0,0-.05,0-.06-.06-.06-.06-.06-.06-.07-.05,0,0,0,0h0l-.06,0-.07-.05-.06-.06-.06-.05-.06-.06,0-.05v0l0-.21-.11,0,0,0h0l-.11,0h0l0-.05h0l0,0,0,0,0-.06,0-.06,0-.07h0l-.05-.06,0-.07h0l0-.06,0-.06,0,0,0-.06,0-.05h0l0-.06v-.06l0-.06v-.13H541v0l0,0v.13h0v.28l0,0h-.08l0,0-.05,0,0-.05,0-.06,0-.06,0-.05v-.15l0,0v0h.06v0h0v-.07h0V348h0v0h0l0,0,0,0,0,0,0,0,0,0v0h0l0,0,0,0,0,0,0,0h0l-.05-.06,0,0h0l0-.06-.1-.12h0l0-.05,0-.05,0,0-.06-.07,0,0,0,0,0,0,0,0-.08-.07-.07-.08-.07-.07,0,0,0,0,0,0,0,0-.08-.06-.07-.07-.08-.05-.06,0h0l0,0-.06-.05-.09-.06,0,0,0,0-.09-.06h0l0,0,0,0-.07,0,0,0-.1-.06-.08,0-.14-.06-.09-.05-.07,0h0l0,0-.06,0-.09,0-.09,0-.09,0h-.09l-.09,0-.09,0h-.52l0,0,0,.05,0,0,0,0h-.15l0,0-.06,0,0,0,0,0,0,0h-1.47l-.07,0h0l-.07,0h0l-.09,0-.06,0-.08,0h0l-.09,0-.07,0h0l-.08,0-.1,0-.09,0-.11,0-.06,0h0l-.09,0-.14,0-.12.06,0,0-.36.14-.26.11-.08,0h0l0,0,0,0-.06,0-.07,0h0l-.09,0,0,0-.12,0-.11,0h-.1l-.12,0h-.07l-.11,0-.13,0-.14,0h0l-.09,0-.13,0-.11,0h-.18l-.22,0-.16,0h-.08l-.08,0-.07,0-.08,0-.06,0-.06,0,0,0-.07-.06,0,0,0,0-.05,0,0,0h0l0,0-.05,0-.06-.06,0,0,0,0-.06-.08-.08-.07-.07-.07-.07-.08h0l-.06-.07h0l-.05-.1-.17-.28v-.06l0,0v0l0,0v0l0,0,0,0h0v0l0,0-.05-.06,0-.05-.06-.05,0,0h0l-.07-.07-.08-.08-.06-.07h0l-.09-.14h0l0,0,0-.09,0-.07,0-.06,0,0,0,0,0,0-.07-.08,0,0-.05-.05h0l-.07-.09,0,0,0,0,0-.06v0h0l0,0,0-.06v0l0,0h0l0-.05v0h0v0h0l0,0,0,0,0,0,0,0,0,0-.06-.08v0h0l0,0v0h0v0l0,0v0l-.05-.07,0-.07h0l0-.05,0,0,0,0,0,0,0,0h0l0,0h0l0-.06,0-.05,0,0,0,0v0l0,0,0-.06v0h0v-.07h0l0,0v0l-.05-.1,0,0,0,0,0-.05,0,0,0,0h0l0,0,0,0,0,0-.05-.06,0,0,0,0v0h0l0-.05-.05-.07v0h0l0,0v0l-.08-.11v0l0-.05,0,0,0,0,0-.05,0,0h0l0-.05,0,0h0l0,0,0,0,0-.05v0h0l0,0,0-.06,0-.05-.05-.06,0-.06,0,0-.08-.12v0l0,0h0l-.05-.08,0-.06,0-.1,0,0h0v0l0,0v0h0l0,0-.08-.1h0l0,0,0,0-.07-.09,0-.05v0l-.05-.08,0,0,0-.06h0v0l0-.06,0,0h0l0-.06h0l0,0,0-.06,0,0,0-.06,0,0,0,0h0l0,0,0-.06h0l0-.05,0,0,0-.1h0l0,0,0,0v0l0,0,0,0,0,0v0h0v-.06h0v0h0l0,0h0v0h0v0h0v0h-.09l0,0v0l0,0h0v0l0,0h0l0,0,0-.05,0,0h0l0,0,0,0,0,0,0,0,0-.06,0-.07-.07-.08-.06-.07-.05-.06,0,0,0,0,0,0,0,0h0l-.07-.09,0,0-.08-.11-.09-.12,0,0,0-.05h0l0,0v-.09l0-.05,0,0h0l0-.05,0,0v0l0,0,0,0h0l0-.05,0,0,0,0,0,0,0,0,0,0,0,0,0,0,0,0h0l0,0h0l0,0v0h0l0,0,0,0,0,0,0-.05,0,0-.42-.52h0l0,0-.06-.08,0,0,0,0,0,0,0,0-.06-.08,0,0,0-.06-.07-.08,0,0,0,0,0,0-.08-.1h0l0-.05h0l0-.05-.07-.07-.06-.06,0,0-.06-.06,0-.05,0,0,0,0h0l0,0,0,0,0,0,0,0,0-.05,0,0,0,0,0,0h0l0,0,0-.07-.07-.11v0l0-.05,0,0,0,0h0l0,0,0,0,0,0,0,0v0h0l0,0,0-.07h0l0-.09,0-.07v0l0,0-.08-.12v0h0l0,0,0-.06h0v0l0,0-.05-.1v0l0-.09,0-.08h0l0,0,0-.06h0l0,0v0h0l-.05-.08,0-.07h0l0,0,0,0,0,0h0l0,0h0v0l0,0h0l0-.06-.08-.09-.09-.09-.05-.05,0-.07h0v0l0,0v0h0v0l0,0-.08-.1-.05-.06h0l0,0-.07-.09,0,0h0l0,0,0-.07,0-.07,0,0v0l0-.05h0v0l0,0h0v0h0l0,0h0v0h0l0,0,0,0,0,0-.05-.06,0,0,0-.05h0v0h0l-.06,0,0,0,0,0h0v0h0l0,0h-.05l0,0,0,0,0,0,0,0,0,0h0l0,0-.05-.06h0l0-.07,0-.07v0h0v0h0v0h0v0l-.06-.07,0,0-.08-.06,0,0,0,0h0v0l0,0-.05-.07v-.05h0l0,0,0,0h-.05v0h0l0,0h0v0h0l0,0,0,.06v.06h.05l0,0h0l0,0h0v0h0l0,0h0l0,0h0l0,0,0,0h0l0,0h0l0,0h0l0,0h0v0l0-.06v-.09h0v-.08h0v0h0v0h0v0l0,0h0l0,0-.07-.05,0,0v0h0V328h0v0h0v0l0,0v-.09l0,0h0l-.06,0,0,0h0l0,0,0,0h0l0,0-.09,0-.11-.05,0,0h0v0l0,0,0-.08,0-.05,0,0,0-.06h0l0,0,0,0h0l-.06-.12,0-.07,0-.07,0-.08h0l0,0v0h0l0-.06,0-.05v0h0l-.05-.14-.07-.23h0v0l-.31-.67v0l0-.08-.06-.18,0-.1v0l0-.06,0-.09,0-.09,0-.12,0-.06v0l0-.08h0v-.05h0v-.3l0-.09V324l0-.05v-.11l0,0h0v-.06h0l0,0h0v0h0l0,0,0,0,0,0h0v0l0,0h0l0-.09v0l.06-.11.06-.12,0-.07,0,0,0,0h0l0,0v0h0l.06-.06.07-.06.09-.11,0-.06v-.13h0v-.1l-.06-.16,0,0,0,0h0v0l0,0,0,0h0l-.05,0h0l0,0h0l0,0,0-.06h0l0,0v0l0,0,0,0,0,0,0,0-.06-.06,0-.05,0,0h0l0,0,0,0-.05-.12v-.13l0-.14V321l0,0,0,0,0,0h-.14l0,0h0l0,0h0l0,0,0,0,0,0h0l0,0-.05-.07,0-.05,0-.06,0-.07,0-.05h0l0-.05v0h-.15l-.06,0h0l-.07,0h0l0,0,0,0,0-.05,0-.08v-.1h0v0l0-.06,0-.08v0l-.12-.18v-.05l0,0v0l0,0,0-.06v0h0l0-.09L514,319v0l0-.06v0l0,0-.35-.69V318l0-.08h0v0l0,0,0-.08,0,0,0-.14,0,0v0h0l0-.05v0h0v-.07h0l0,0v0l0,0,0-.1h0l0-.06v0l-.11-.3h0v-.13h0v-.06h0v0l0,0h0v-.14l0-.05,0-.06v0l0-.09h0v0l0,0h0l0-.07,0,0h-.06l0,0,0,0,0,0v0l0-.05v-.16l0-.11,0,0v0l0,0,0,0-.06-.13-.05-.1v0l0-.06,0-.05,0,0,0-.05,0,0v0l0,0,0-.05,0,0v0l-.06-.13v0l0-.06,0-.07h0l0,0h0l0,0v0h0l0,0v0h0l0,0,0-.08h0l0-.05v0l0,0,0-.05,0,0,0,0v0h0l0,0,0,0h0l-.05-.06v0l-.08-.12,0-.05h0l0,0h0l0,0,0,0,0,0,0,0,0-.05,0,0h0l-.05-.07v0l0,0-.05-.07h0l-.16-.18-.12-.18-.09-.13,0-.06-.11-.16,0-.07-.11-.17,0-.07,0,0-.07-.08,0,0h0l0,0,0,0h0l0,0H510l0,0,0,0,0,0-.06.06h0l-.11-.18h0l0,0h0l0,0,0,0v0l0,0,0,0v0h0v-.18h0v-.07h0l0-.08,0-.05,0-.05-.05-.07-.06-.06-.05-.07-.14-.17-.21-.28-.13-.19-.06-.09-.06-.1,0,0,0-.05-.05-.08h0l-.08-.13,0,0,0,0-.05-.07v0l0-.06,0,0v0l0-.06,0-.06v-.05l0,0v0l0-.1v0h0l0-.06h0v0h0l0,0,0-.05,0,0-.05-.08v0l0,0,0,0h0l0,0v-.06h0v0l0,0h0l0,0,0,0-.05-.07,0,0,0,0,0,0L508,308l0-.05h0l-.06-.08-.05-.08v0l0-.05-.07-.1-.05-.09,0,0v0h0l0,0,0-.05v0h0l0-.07,0-.06,0,0-.07-.14-.06-.09,0,0,0,0,0-.05h0l0,0,0-.06h0l-.05-.07,0-.05,0,0v0l0,0,0,0h0l0-.05v0l0,0,0-.06,0,0,0-.06,0-.05,0,0v0l0,0,0-.05,0-.06h0l0-.06,0-.05,0-.06,0,0h0l0,0v0l0,0,0-.06,0,0h0v0l0,0,0,0,0,0v0h0v0h-.06v0l0,0h0v0h0v0l0,0,0,0h0v0l0,0v0l0-.05,0,0,0-.05v0h0l0-.05,0-.05,0-.05v-.16l0-.05v-.08h0l0,0v-.09h0V304h0v0l0,0v-.06h0v-.24h0l0,0v-.13h0l0,0v0l0,0,0,0h0v0h0v0l0,0,0,0h0l0,0,0,0h0l0,0v0h0v-.12l0,0v0h0v0h0v0h0v0l0,0v0h0v0H505l0-.11h0v0h0l0,0,0,0,0,0,0,0,0,0,0,0h0v-.19l0,0v0l0,0v-.14l0,0h0v0l0,0,0,0h0l0,0,0,0V302l0,0h0l0,0v0l0,0v0l0,0,0,0v-.05l0,0v-.06h0v-.06h0v-.05l0,0v-.05l0,0v-.05h0V301l0-.05v-.36h0v-.08h0v-.13h0v0h0v0h0v0h0v0h0V300l0,0,0-.05,0,0h0l0,0,0-.05v0l0,0,0,0v0l0-.05,0-.05,0-.05,0,0,0-.05,0,0h0l0,0v0l0,0,0-.05,0,0,0,0h0l0,0,0,0h0l0,0h0l0,0h0l0,0-.05,0-.05,0h-.05l-.05,0h-.15l0,0,0,0,0,0h0l0,0,0,0,0,0,0,0h0v0h0l0,0,0,0h0v0h0v0h0v-.08h0v0h0v-.09l0,0,0,0h-.1l0,0h-.05l0,0,0,0-.05,0,0,0,0,0h0l0,0h0l0,0,0,0h0l0,0,0,0,0,0,0,0-.05,0-.05,0-.05,0-.05,0,0,0,0,0-.05,0-.05,0,0,0-.06,0-.06,0-.05,0-.06,0-.05,0,0,0h0l-.05,0,0,0h0l-.05,0h0l0,0,0,0h-.43l0,0h0l0,0h0l0,0h-.42l0,0h0l0,0H500l-.06,0h-.07l-.06,0,0,0h0l-.06,0,0,0h0l0,0-.06,0-.05,0-.06,0-.06,0-.05,0-.05,0h0l-.06,0-.06,0h-.08l0,0h-.14l0,0h-.05l-.05,0h0l-.05,0h0l-.05,0h-.22l-.49-.3v0l0,0h-.33l0,0,0,0h0v0h-.14l0,0h-.5l-.2,0h0l-.05,0h-.07l-.06,0h-.17l-.05,0h0l-.05,0,0,0h0l-.05,0h0l0,0h-.08l0,0h-.06l0,0h-.07l0,0h0l-.06,0h-.06l-.05,0h-.12l-.05,0h-.11l-.06,0h-.4l-.05,0h-3.05l0,0H490l-.33-.05-.12,0h-.07l-.21,0h-.65l-.07,0h-.12l-.05,0h-.23l-.05,0H488l0,0-.05,0,0,0h-.54l-.13,0h-.43l-.06,0h0l0,0h-.52l0,0h0l0,0-.05,0h0l0,0-.06,0-.05,0h0l-.05,0h0l-.07,0h-.08l-.07,0h-.92l0,0,0,0v0l0,0h0l-.05,0h-.1l0,0,0,0h0l-.05,0h0l-.05,0h-.42l-.06,0h-.13l0,0,0,0h0l-.05,0h0l0,0,0,0h-.17L480.68,284l.71.09.08-.26-.08-.37-.54-2.5-.16-.72.36-1.52-.27-1.22-.34-1.08-.21-.46-.69-1.09-1-1.64-.15,0h-.15l-.1-.07-.09-.1-1-1.69-.11-.19-.08-.12-.08-.09-.09-.09-.23-.18-.13-.11-.06-.09,0-.12-.22-1,0-.08-.2-.58-.41.09-.1-.25,1.23-.31-.16-.6-.27-.78-.58-1-.33-.36-.4-.48-2.35-1.75-.34-.4-1.46-3-1.85-2.4-.09-.53,11-2.2.31,1.49,1.52-.34.21.91,3.52-.83.19.09.19,0h.81l.06,0h.06l.06,0h0l.05,0h1.11l0,0h.1l.05,0,.05,0h0l.05,0,.05,0,.05,0,.05,0,0,0,.05,0,0,0,0,0,0,0,0,0,.05,0,.17-.13.34-.23.05,0,.06,0,.06,0,.06,0,.06,0,.06,0,.07,0,.06,0,.06,0,.07,0H490l.11,0,.15,0,.14,0,.23-.06.12,0,.83-.22.18-.05-.06-.25h0l-.13-.57-.19-.83-.22-.92v-.33l0,0v0l.31.34v0l.15.16.82.94.1.11.17.2.22-.2v0l.73-.74.36-.36.45-.46,0,0,0-.05,0,0,0-.05,0,0,0-.05,0,0,0-.06,0,0v0l0,0v-.23l-.38-2.56.79,0,.12-.09,5.61-.59.27,0h.29l.12,0,.16,0h0v0h0l0,0H502l.1,0,.37-.06.33-.06.34,0,.36-.05.44-.06.41,0,.3-.05.41-.07.34-.06.47-.07.47-.08.5-.08.48-.07.65-.11.63-.1.45-.07h.28l.46-.06.41.27.22.15.34.25.34.24.29.21.37.24.3-.88,1.26-1.54.75-.37.7-.35.42-.4,0,0,.51-.48.58-.51.26-.49.13-1.31.36-.79,1.27-.65.72-.38.91,0,1.74.83.69,0,.32-.24.48-.37.25-.17.3-.51.09-.41.29-1.72.35-1.77.73,1.11.62.94.75,1.14.73,1.1,0,0h0l.08.12.07.11.09.11.08.12.1.14,0,.08,0,.06,0,.09.05.07.06.08.07.11.07.12.05.07.07.08,0,0,0,0,0,0,0,0,.06,0,0,0,0,0,.05,0h0l0,0h.09l.11,0H529l.11,0,.3.06h0l.14,0,.12,0h.09l.28.05h.1l.1,0h.26l0,0,0,0,.05,0,0,0,.05,0,0,0,0,0,0,.05,0,0,0,0,.13.21.15.25.58,1h0l.1.16.1.17.41.69.22.37.6,1,.1.16,0,.05,0,.07,0,0h0l0,0,0,0,.26.4.27.4.21.3.07.12.09.2.1.27.23.92.21.78.19.73.16.61,0,.17.07.24.07.21.1.23,0,.07.1.24.11-.17.14-.21,0,0,0,0,.34-.41.31-.38.42-.51.34-.43,0,0,.15-.19.13-.14.18-.21.12-.15.25-.29.14-.15.2-.22,0,0,0,0,.12-.13.11-.13.07-.08.15-.17h0l.11-.13.43-.49,0-.05.15-.17,0,0h0l.13-.15.18-.19.13-.15.44-.48.2-.22.86-.94.62-.66.22-.22.18-.18.18-.2.21-.26.09-.12h0l.15,0,.23,0,.39-.08.14,0,1.17-.23h0l.76-.15.85-.17.48-.1.21,0,.37-.07.28-.06.29-.06.32-.06.72-.15.5-.1.32-.06.82-.17.11,0h0l.52-.1.25-.06h0l.17,0,.12,0,.46-.09.74-.15.34-.07.57-.11.08,0,.53-.11.3-.06.24-.05h0l.64-.12,1.43-.28h0l1.41-.28.53-.11.07,0,.36-.07.07.35.27,1.3h0l0,.22,0,.24.28,1.43.05.24,0,.22.1.48,0,.11.2,1v.08l0,.1,0,.22.14.71.16.79,0,.23.31,0,.21-.05.34-.07L563,247l.76-.15.25,0,.71-.14.25,0,.52-.11.39-.08h0l.24,0,.23,0,1.12-.23.89-.18.18,0,.25,0,.16,0,.1,0h.07l.36-.07.19,0,.73-.15.16,0,.31-.06.32-.06.14,0,.75-.15.31-.06.4-.07.2,0,.41-.08.13,0,1.11-.23.56-.12.33-.07.24-.05h.12l.32-.08.29-.06.26-.05.7-.15h0l.64-.14h.06l.19,0,.16,0,.78-.16h0l.35-.07.31-.06.25-.05.25,0,.7-.14.2,0,.09,0h.08l.47-.1.13,0,0-.14V243l0-.15-.2-1-.18-.89v-.05l-.08-.39-.1-.48-.12-.6v0l0-.2,0,0,0,0,0,0,0,0,0,0,0,0,0,0v-.34l.2.07,0,0,.29.11.59.21h0l.11,0,.13.05.16.06.26.11h.07l.39.14.47.18.46.16.23.09.13,0,.28.1.49.18.29.1.53.22h0l.09,0,.32.63.38.76.11.25.09.18,0,.08.09.17.06.13.06.14.12.26.28.58.07.14.38.81.38.79v0l.09.18.09.18.4.85.3.63.1.2,0,.11v0l.41.85.33.69.09.19.09.19.25.53.32.65.06.13,0,.13.08.17.06.13.13.27.05.11.17.34.41.86.1.2h0l0,0,.17.37.11.22,0,.07h0l.12.25,0,.05,0,.07.08.18.38.79.07.14.15.31.09.2.45.94.1.21.86,1.8.17.42.91,2,.93,2,.39.73-.74.57-1.58,1.23-3.37,2.65-1.16.92-1.62,1.25-3,2.3-.38.15,0,.1.17.8,0,.2.14.68.09.43h.51l.09,0,.15,0,.6.16.64.17.3.08h0l.1,0,.56.15.34.1.37.08.12,0,.2.06.24.07.12,0,.45.12.07,0,.65.18.2.05.27.08.14.69.56,2.79.41,2,.4,2,.52,2.57.66,3.2.69,3.51-.06.36-1.5,1L595,297l.5,2.21,2.61.48,2,.37,2.33.42,2.39.42.41,2.18,1,4.79.35,1.68.32,1.64-.35.08h0l-.49.1-.62.13-.53.11-.21,0-.37.08-.14,0-.49.09-.5.1h0l-.13,0-.17,0-.31.06h0l-.35.08-.13,0-.72.15-1,.2-.92.18-.64.13-.32.07-.22.05h0l-3.22.66h0l-.42.09-.39.07-.2,0-.64.13-.64.13-.55.11-.56.12-.33.07-.3.06-.24,0h0l-.43.08-.25,0-1,.21-.93.19-.64.13-.33.07-3.61.74-.22,0h-.08l-.12,0-.25.05-.9.18-1,.21-1.11.22-.12,0-1.26.25-.83.17-1,.19h0l-.29.07-.15,0,.85,4.24.18.92,0,.12.31,1.61,0,.12,0,.17.21,1.29.1.79,0,.77.05,1-.21.87Z"/><rect class="cls-5" x="349.42" y="13.12" width="471.86" height="572.63"/><path class="cls-10" d="M543.34,186.73l.79-.16.81-.17.1,0h.11l.1,0H546l.16,0,.16,0,.22,0,.38.06.17,0,.16,0,.63.12.24.05.3,0,.63.08.18,0,.42.08.23,0,1.06.17.33.06.35.05.19,0,.21,0,.64.11.39.06.24.05.18,0h.07l.14,0,.16,0,.23,0,.25,0,.76.11.08,0,1.11.19h.09l.14,0,.21,0,.67.1h0l1.05.19.44.07.17,0,.2,0h0l.72.12.87.14.56.09.11,0,.11.05,0,0,.1.05.6.1h.31l.11,0,.19-.07,0-.11.06-.21,0-.11.31-1.07.32-1.13,0-.05.12-.44.11-.42.46-.26,1.16-.7.33-.19.12-.08.17-.1.58-.34,1.08-.65.07,0,.39-.23.42-.24.05,0,.17-.08.21-.09h0l.85-.33.38-.16.48-.19.81-.32,0,0,0,0h0l0,0,.06,0h0l0,0,0,0,.05,0h0l0,0,.05,0,0,0,.61-.35.22-.12v.4l-.06.47v.52h0l.07.44v0l0,.2,0,.16,0,.17v.05l.17.79.15.64.05.22v0l0,.24.13.57.16.7,0,.21,0,.09,0,.18.13.58.05.22.11.49.14.63,0,.11,0,.09,0,.17,0,.16,0,.06,0,.07,0,.06,0,.07,0,.06,0,.07,0,.06,0,.07,0,.06,0,.07,0,.06,0,.05.27.67v0l.08.2.07.18.27.73.33.82.09.25.07.17.06.15.08.21.18.45.24.62v0l.06.18.08.18.22.58.19.48.06.17.06.16v0l.31.82.28.74.2.48.08.2.08.2.31.83.07.17.22.6.12.31,0,.09,0,0,.07.18.08.21.13.34,0,.05,0,0,0,.05v.05l0,.06,0,0,0,.05,0,0,0,.05v.05l0,0v.14l0,.05v.06h0v.86l-.05.14-.13.4-.08.21h.36l.07,0h.08l0,0,.07,0,.07,0,.07,0,.07,0,.06,0,.07,0,.05,0,0,0,0,0,.05,0,0,0,.05,0,0,0,0,0,.05,0,0,0,0,0,.05,0,0,0,0,0,0,0,0,0,.05,0,0,0,0,0,0,0,.2.19,0,.05.06.06.06.06.06.06.06.05.06.06.06.06.06,0,.06.06.06.05.23.17.37.32h0l0,0,0,0,0,0,0,0,0,0,.05,0,0,0,0,0,0,0,0,0,.53.28.46.25.67.36.4.22.27.14.54.3.1,0,.09.05.1,0,.1.05.1,0,.1,0,.1,0,.11,0,.1,0,.1,0,.1,0,.1,0,.1,0,.11,0,.1,0h1.2l.09,0,.08,0,.34-.06.34-.07.62-.13h.49l.1,0,.09,0,.09,0,.1,0,.09,0,.1,0,.09,0,.09,0,.1,0,.06,0h.07l.17,0,.07.33v0l.19.94.3,1.54.28,1.38.29,1.41.29,1.42,0,.22.05.27,0,.24.15.73.29,1.42.09.43,0,.19.17.8.27,1.37.06.28,0,.19-.2,0h0l-.7.14h-.11l0,0h-.05l-.07.08-.07.08-.07.08-.07.07-.08.08-.07.07-.08.07-.07.08-.08.07-.08.07-.11.09-.12.1-.11.09-.12.08-.12.09-.12.09-.12.08-.13.08-.12.08-.13.07-.12.07-.12.07-.12.06-.12.07-.12.06-.12.06-.12.06-.12.06-.13.06-.12,0-.26.11,0,0-.25.1,0,.13,0,.08.22.73v0l.05.18h0l0,.15v0l.22.75.1.33.06.2.06.22.23.83v0l.06.19v0l0,.16v0h0l.18.62.07.24,0,.1h0l0,.14,0,.17.1.35.19.66,0,.07v0l0,.15,0,.12v0l0,.06.23.79v.08l0,.14,0,.15v.06l.37,1.27h0l.05.18.06.19v0l.23.81.16.54,0,.16,0,.15,0,.15v0l.13.44,0,.19.06.2,0,.16,0,.12.1.36,0,.19.06.21h0l.13.45,0,.12.07.22v0l.09.33,0,.15-1,.81-1.38,1.09L590,241.35l-.32.26-1.58,1.24-.06-.13-.09-.17,0-.08-.12-.25-.08-.18-.38-.76-.32-.63-.09,0h0l-.53-.22-.29-.1-.49-.18-.28-.1-.13,0-.23-.09-.46-.16-.47-.18-.39-.14h-.07l-.26-.11-.16-.06-.13-.05-.11,0h0l-.59-.21-.29-.11,0,0-.2-.07V239l0,0,0,0,0,0,0,0,0,0,0,0,0,0,0,.2v0l.12.6.1.48.08.39V241l.18.89.2,1,0,.15V243l0,.14-.13,0-.47.1h-.08l-.09,0-.2,0-.7.14-.25,0-.25.05-.31.06-.35.07h0l-.78.16-.16,0-.19,0h-.06l-.64.14h0l-.7.15-.26.05-.29.06-.32.08h-.12l-.24.05-.33.07-.56.12-1.11.23-.13,0L573,245l-.2,0-.4.07-.31.06-.75.15-.14,0-.32.06-.31.06-.16,0-.73.15-.19,0-.36.07h-.07l-.1,0-.16,0-.25,0-.18,0-.89.18-1.12.23-.23,0-.24,0h0l-.39.08-.52.11-.25,0-.71.14-.25,0L563,247l-.27.05-.34.07-.21.05-.31,0,0-.23-.16-.79-.14-.71,0-.22,0-.1v-.08l-.2-1,0-.11-.1-.48,0-.22-.05-.24-.28-1.43,0-.24,0-.22h0l-.27-1.3-.07-.35-.36.07-.07,0-.53.11-1.41.28h0l-1.43.28-.64.12h0l-.24.05-.3.06-.53.11-.08,0-.57.11-.34.07-.74.15-.46.09-.12,0-.17,0h0l-.25.06-.52.1h0l-.11,0-.82.17-.32.06-.5.1-.72.15-.32.06-.29.06-.28.06-.37.07-.21,0-.48.1-.85.17-.76.15h0l-1.17.23-.14,0-.39.08-.23,0-.15,0h0l-.09.12-.21.26-.18.2-.18.18-.22.22-.62.66-.86.94-.2.22-.44.48-.13.15-.18.19-.13.15h0l0,0-.15.17,0,.05-.43.49-.11.13h0l-.15.17-.07.08-.11.13-.12.13,0,0,0,0-.2.22-.14.15-.25.29-.12.15-.18.21-.13.14-.15.19,0,0-.34.43-.42.51-.31.38-.34.41,0,0,0,0-.14.21-.11.17-.1-.24,0-.07-.1-.23-.07-.21-.07-.24,0-.17-.16-.61-.19-.73-.21-.78-.23-.92-.1-.27-.09-.2-.07-.12-.21-.3-.27-.4-.26-.4,0,0,0,0h0l0,0,0-.07,0-.05-.1-.16-.6-1-.22-.37-.41-.69-.1-.17-.1-.16h0l-.58-1-.15-.25-.13-.21,0,0,0,0,0-.05,0,0,0,0-.05,0,0,0-.05,0,0,0,0,0h-.26l-.1,0H530l-.28-.05h-.09l-.12,0-.14,0h0l-.3-.06-.11,0h-.07l-.11,0h-.09l0,0h0l-.05,0,0,0,0,0-.06,0,0,0,0,0,0,0,0,0-.07-.08-.05-.07-.07-.12-.07-.11-.06-.08-.05-.07,0-.09,0-.06,0-.08-.1-.14-.08-.12-.09-.11-.07-.11-.08-.12h0l0,0-.73-1.1-.75-1.14-.62-.94-.73-1.11.61-1.29.22-.25.17-.27,1-1.42.15-.42.07-.36,0-.67-.07-.46-.43-1.65-.5-1.52-.23-.74-.58-1.18-.65-.65-.61-.6-.22-.63-.54-1.67-.71-1.81-.36-1.07-.12-.48,0-.41,0-.37.09-.18.13-.15.13-.09.38-.06.3,0,.25.08.19.14h0l.25.15.16.1,1,.78.42.42,1.05.66,1,.36.34.16.38.47.33.56.28.52.3.08.27.11h.24l.27,0,.29,0,.75-1,.57-.69.18-.24.31-.5-.08-1.14-.05-.25-.15-.4-.06-.27v-.37l0-.29-.06-1.7-.41-.9-.36-.42-.48-.51-.67-.52-.92-.87-.6-.63-.5-.68-.37-.49-.47-.52-.61-.69-.59-.68-.31-.28-.42-.28-.48-.23-.44-.14-.45-.07-1-.15-.6,0-.73-.2-.52-.08-.42.07-.55.09-.42,0-.28,0-.41-.12-.38-.19-.43-.34-.17-.31-.18-.27-.06-.26,0-.19.26-.43.18-.24,0-.06,0,0,.08-.1.16-.31h0l.31-.37.29-.33.22-.28.36-.34.23-.21.26-.24.24-.37.18-.42.12-.3.09-.21.16-.37.21-.49.31-.72.94-.88.23-.2,1.37-.94.08,0,.07-.06.08-.05.07-.06.07-.06.07-.06.08-.06.07-.06L524,196l.07-.07.24-.21.51-.47.41-.38,0,0,0,0,.05,0,0,0,0,0,.05,0,.06,0,.05,0,0,0,0,0,.06,0,0,0,.06,0,.06,0,.05,0,.06,0,.06,0,.06,0,.06,0,.06,0,0,0,0,0h.09l0,0h.23l.8-.16.71-.15.1,0,.1,0,.1,0,.11,0,.1,0,.1,0,.1,0,.11,0,.1,0,.1,0,.08,0,.08,0,.08,0,.09,0,.08,0,.08,0,.08,0,.08,0,.08,0,.08,0,.08,0,.09,0,.09-.05.09,0,.09,0,.09,0,.08,0,.09,0,.09,0,.09,0,.07,0,.07,0,.07,0,.08,0,.07,0,.07,0,.07,0h.07l.07,0,.07,0,.37-.05.08,0,.09,0,.08,0,.09,0,.08,0,.08,0,.08,0,.08,0,.08,0,.08,0,.07,0,.07,0,.07,0,.06,0,.07-.05.06,0,.07-.05.06,0,.06-.05.06,0,.07-.07.07-.06.06-.07.07-.07.06-.07.06-.08.06-.07.06-.08.06-.08.05-.08,0,0,0,0,0-.05,0,0,0,0,0,0,0,0,0,0,0,0,0,0,0-.05,0-.05.05,0,0,0,.05-.05,0,0,0,0,.06,0,0,0,.05,0,.06,0,.05,0,0,0,.06,0,.05,0,.06,0,.05,0,.06,0,.05,0,.06,0,.24-.16.37-.24.1-.07,0,0,0,0,.07,0,.07-.06.07-.05.07-.06.06-.05.07-.06.07-.06.06-.06.07-.06.16-.16.17-.18.15-.19.29-.35.51-.62.39-.46.1-.1.1-.11.1-.1.1-.11.1-.1.1-.1.11-.1.1-.1.1-.1.11-.1.13-.11.14-.12.13-.11.14-.11.14-.11.14-.11.27-.2.09.49.11.53.06.29v0l.11.55.05.25.23-.05h.08l.31-.07.63-.12.14,0Z"/><rect class="cls-5" x="349.42" y="13.12" width="471.86" height="572.63"/><path class="cls-11" d="M613,117.82,724.9,201.88l-.19.38-.35.68v0l-.4.84-.19.38-.13.27-.67,1.35-.32.64-.27.55-.25.42-.8,1.31-1.62,2.57-.55.64-.32.37-.4.33-.37.26-.29.17-.93.34-1.75.46-4.77,1L710,215l-.51.13-1.31.32-.63.21-.63.31-.34.27-.31.31,0,.05-.24.31-.19.31-.12.36,0,.25v.7l.22,1.41.31,2,.13,1.5v.83l-.08.89-.12.9-.31,1.37-.65,1.76-1.32,3.6-.41,1.82L703,236V236l-.26.89-.18,1-.18,1-.22,1.79-.3,2.36-.27,3-.36,1.94-.7,2.81-2,5.17-.42,1.1-.26,1-.11.9-.07.74.06.49.15.55.26.73.45,1,.43.95.34.9.11.46.08.38.12,1.06-4.11.39-.27,0H695l-.8.05-.75.08-.92.06-.71.05-.92.09-2.26.2h-.12l-.65,0h-.27l-.35,0-.49,0-.46,0h-.61l-.3,0h-2.56l-.25,0-.36,0h-.4l-1-.06h-.33l-.23,0H680l-.71,0-.56,0h-.44l-.53,0-.93,0-.25,0h-.22l-.46,0h-.39l-.47,0-.79-.05-.4,0h-.17l-.26,0h-1.09l-.38,0h-.46l-.41,0-.89,0h-.3l-.2,0-.88-.05-1-.05-1,0-.35,0-.27-.05h0l-.92-.05-.56,0-1.32,0-.83,0h-.07l-.21,0h-.19l-.95-.05-.79,0H659l-.87,0-.69,0-.42.06-.2-.13h0l0,0-.06,0-.06,0-.07,0,0,0-.54-.19-.78-.3-.17-.06-.09,0h0l-.4-.15-.14-.05-.34,0h0l-.14-.06-.21-.07-.2-.07-.16-.06-.16-.06-1-.37-.18-.06-.31-.12-.25-.09L651,264l-.34-.13h0l-.22-.08-.2-.07-1.28-.47h0l-.31-.11-.17-.07-.45-.16-.21-.08-.13,0-.13-.05-.13-.05-.12,0-.13-.05-.13-.05-.13,0-.12,0-.13-.05-.13-.05-.3-.1-.07,0-.22-.08-.2-.07-.24-.08-.54-.19-.22-.08-1-.38-.31-.11-.89-.32-.15-.06-.14-.05-.31-.11-.13,0-.15-.05-1.21-.45-.5-.17-.31-.11-.43-.15-.12,0-.22-.09-.26-.09-.23-.09-.7-.27-.36-.13-.2-.08-.1,0-1.25-.45-.07,0-.5-.18-.23-.09-.33-.12-.27-.1-1.66-.63h0l-.34-.11-.11,0-.36-.13-.19-.07-.15,0-.24-.09-.65-.24-.23-.08-.53-.2h0l-.9-.34-.65-.24-.18-.06-.26-.1-.36-.14-1.64-.61-.27-.11-.3-.11,0,0-1.28-.47-.26-.07,0,0-.25-.09-.07,0-.23-.09-.26-.09-.08,0-.12,0-.48-.18h0l-.76-.28-.75-.27h0l-.06,0-.33-.12-.19-.06-.3-.1-.06,0-1-.38-.2-.07h0l-.54-.2-1.15-.42-.16-.06-.07,0-.95-.34-.14-.06-.13-.05h0l-.37-.15-.28.22-1.86,1.45-.76.6-.09.06-.25.2-.76.59-.29.23-1,.76-1.28,1-.14.11-.3.24-.17.13-.22.18-.23.18-.14.11-.13.1-.34.27-.08.07-.8.63-.05,0-.13.11-1.38,1.07-1.85,1.45-2,1.61-.4.31-.53.41L598.11,264l-.39-.73-.93-2-.91-2-.17-.42-.86-1.8-.1-.21-.45-.94-.09-.2-.15-.31-.07-.14-.38-.79-.08-.18,0-.07,0-.05-.12-.25h0l0-.07-.11-.22-.17-.37,0,0h0l-.1-.2-.41-.86-.17-.34-.05-.11-.13-.27-.06-.13-.08-.17,0-.13-.06-.13-.32-.65-.25-.53-.09-.19-.09-.19-.33-.69-.41-.85v0l0-.11-.1-.2-.3-.63-.4-.85-.09-.18-.09-.18v0l-.38-.79-.38-.81-.07-.14-.28-.58-.12-.26-.06-.14,1.58-1.24.32-.26,1.46-1.14,1.38-1.09,1-.81,0-.15-.09-.33v0l-.07-.22,0-.12-.13-.45h0l-.06-.21,0-.19-.1-.36,0-.12,0-.16-.06-.2,0-.19-.13-.44v0l0-.15,0-.15,0-.16-.16-.54-.23-.81v0l-.06-.19-.05-.18h0l-.37-1.27v-.06l0-.15,0-.14v-.08l-.23-.79,0-.06v0l0-.12,0-.15v0l0-.07-.19-.66-.1-.35,0-.17,0-.14h0l0-.1-.07-.24-.18-.62h0v0l0-.16v0l-.06-.19v0l-.23-.83-.06-.22-.06-.2-.1-.33-.22-.75v0l0-.15h0l-.05-.18v0l-.22-.73,0-.08,0-.13.25-.1,0,0,.26-.11.12,0,.13-.06.12-.06.12-.06.12-.06.12-.06.12-.07.12-.06.12-.07.12-.07.13-.07.12-.08.13-.08.12-.08.12-.09.12-.09.12-.08.11-.09.12-.1.11-.09.08-.07.08-.07.07-.08.08-.07.07-.07.08-.08.07-.07.07-.08.07-.08.07-.08h.05l0,0h.11l.7-.14h0l.2,0,0-.19-.06-.28L594,219l-.17-.8,0-.19-.09-.43-.29-1.42-.15-.73,0-.24-.05-.27,0-.22-.29-1.42-.29-1.41-.28-1.38-.3-1.54-.19-.94v0l-.07-.33-.17,0h-.07l-.06,0-.1,0-.09,0-.09,0-.1,0-.09,0-.1,0-.09,0-.09,0-.1,0h-.49l-.62.13-.34.07-.34.06-.08,0-.09,0h-1.2l-.1,0-.11,0-.1,0-.1,0-.1,0-.1,0-.1,0-.11,0-.1,0-.1,0-.1,0-.1-.05-.1,0-.09-.05-.1,0-.54-.3-.27-.14-.4-.22-.67-.36-.46-.25-.53-.28,0,0,0,0,0,0,0,0-.05,0,0,0,0,0,0,0,0,0,0,0h0l-.37-.32-.23-.17-.06-.05-.06-.06-.06,0-.06-.06-.06-.06-.06-.05-.06-.06-.06-.06-.06-.06,0-.05-.2-.19,0,0,0,0,0,0-.05,0,0,0,0,0,0,0,0,0-.05,0,0,0,0,0-.05,0,0,0,0,0-.05,0,0,0-.05,0,0,0,0,0-.05,0-.07,0-.06,0-.07,0-.07,0-.07,0-.07,0,0,0h-.08l-.07,0h-.36l.08-.21.13-.4.05-.14v-.86h0v-.06l0-.05v-.14l0,0V202l0-.05,0,0,0-.05,0,0,0-.06v-.05l0-.05,0,0,0-.05-.13-.34-.08-.21-.07-.18,0,0,0-.09-.12-.31-.22-.6-.07-.17-.31-.83-.08-.2-.08-.2-.2-.48-.28-.74-.31-.82v0l-.06-.16-.06-.17-.19-.48-.22-.58-.08-.18-.06-.18v0l-.24-.62-.18-.45-.08-.21-.06-.15L576,193l-.09-.25-.33-.82-.27-.73-.07-.18-.08-.2v0l-.27-.67,0-.05,0-.06,0-.07,0-.06,0-.07,0-.06,0-.07,0-.06,0-.07,0-.06,0-.07,0-.06,0-.16,0-.17,0-.09,0-.11-.14-.63-.11-.49-.05-.22-.13-.58,0-.18,0-.09,0-.21-.16-.7-.13-.57,0-.24v0l-.05-.22-.15-.64-.17-.79v-.05l0-.17,0-.16,0-.2v0l-.07-.44h0v-.52l.06-.47v-.4l.26-.15h0l.18-.11.18-.1.17-.11.17-.11.18-.11.17-.11.18-.11.17-.11.14-.09,0,0,.17-.11.06,0,.06,0,0,0,0,0,0,0,0-.05.05,0,.06-.05,0,0,.05-.05,0,0v0l0-.05,0-.06.06-.07.05-.06,0-.07,0-.07,0-.07,0-.07.05-.08,0-.07.11-.24.17-.34,0-.07.1-.21.14-.29.3-.61.12-.24.09-.18v0l.1-.2.09-.18.1-.21,0-.09.07-.15.31-.64.57-1.16.17-.32.06-.12h0l0,0V173l0,0v-.17l.08-.38,0-.17,0-.2.15-.75.2-1v-.19l0,0v-.15l.14-.43.07-.23.07-.22,0-.05,0-.06v0l0-.05,0,0,0-.06,0-.05,0-.05,0,0,0-.05.24-.55.28-.64.31-.69.15-.31,0,0,.1-.19.12-.22.13-.23.22-.44.13-.3,0-.07,0-.08,0-.08,0-.07,0-.08,0-.08,0-.08,0-.08,0-.08,0-.08v-.55l.07-.61v-.1l0-.19,0-.19,0-.41.07-.6v-.28l0-.08,0-.08,0-.08,0-.08,0-.08,0-.08,0-.08,0-.08,0-.08,0-.08,0,0h0l0-.05,0-.05,0,0,0-.05,0,0,0-.05,0,0,0-.05,0-.05,0,0,0,0h0l0,0,0,0,0,0,0-.05,0,0h0l0,0,0,0,0,0,0,0,.25-.25.09-.07.09-.08.09-.09.08-.08h0l.08-.08.08-.09.06-.07,0,0,.07-.09.05-.06,0,0,.07-.1.54-.7.62-.83.65-.87.05-.06,0-.07,0-.07,0-.07,0-.07,0-.07.24-.37.27-.68,0-.13,0-.11v0l0-.06,0,0v0l0-.13,0-.06v0l0-.12,0-.11,0-.12,0-.12v-.8l0-.46-.08-.45,0-.2,0-.15-.21-.83-.41-1.49-.09-.37-.06-.21,0-.21,0-.12-.21-.82-.24-.91-.29-1.15,0-.07-.1-.37-.14-.53-.29-1.17-.06-.23-.13-.52-.25-.95v-.05l-.11-.42-.09-.35,0-.14,0-.19-.29-1.09-.27-1.07-.14-.54-.05-.2-.06-.21V137l-.16-.57,0-.07,0-.08,0-.08,0-.08,0-.08,0-.08,0-.08v-.08l0-.08,0-.08,0-.22-.12-.58,0-.1,0-.21,0-.19v0l-.15-.69-.17-.84-.2-1,0-.17-.05-.21-.1-.51h.09l.08,0,.07,0,0,0h0l.07,0,.4-.22.55-.3.11-.06.81-.47h0l.06,0,.59-.33.13-.07.13-.07h0l.58-.32.12-.07.13-.08.12-.07.13-.07.12-.07.13-.07.07,0,.05,0,.13-.07,0,0,.09-.06.11-.06h0l.06,0,.66-.38,1.57-.9.18-.1,1.37-.76.63-.35.26-.16,0,0,.36-.25.22-.17.15-.15.16-.18.12-.16,0,0,.07-.12.2-.38v0l.1-.28.12-.36,0-.16,0-.12,1.07.79,2.6,1.92.32.26h0l0,0,0,0,0,0,0,0,0,0,0,0,.21.16.16-.21.42-.51,0-.06,0-.06,0,0,0-.06,0-.06,0-.06,0-.06,0-.06,0-.07,0-.06,0-.07h0l0-.07,0-.07,0-.08,0,0,0,0,0-.07,0-.08v0l0-.05,0-.07,0-.08.17-.47.15-.5v0l.05-.15.07-.23,0,0,0-.09,0-.09,0-.09,0-.08,0-.09v0l0-.06,0-.08,0-.08.05-.08,0-.08,0,0,0-.06,0,0h0l0-.06,0,0,0-.05,0,0,0,0,0-.05,0,0,0,0h0l.06-.07.06-.08.06-.07.06-.07.07-.07.06-.07.07-.06.07-.07.07-.06.07-.06.08-.07.09-.06.08-.07.06,0,0,0,.09-.06.09-.06.09,0,.09,0,.09-.05.07,0h0l.09,0,.09,0h0l.08,0,.09,0h0l.09,0,.1,0,.09,0,.07,0h0l.1,0,.1,0,.46-.1.18,0,.64-.13,1-.19.82-.17.88-.18.43-.09.32-.07.12,0,.22,0,.14,0,.15,0h.06l.61-.13.77-.15.44-.09.41-.09h.15l.08,0h.55l.87-.08h.12l.07,0h.06l.06,0,0,0h0l.06,0,.06,0,.06,0,0,0h0Z"/><rect class="cls-5" x="349.42" y="13.12" width="471.86" height="572.63"/><path class="cls-12" d="M491,144.07l0,.1,0,0,.05,0,0,0,.05,0h.07l.09,0H492l0,0h.08l0,0,0,0,0,0,0,0,0,0,0,0,0,0,0,0,0,0,0,0,0-.06,0-.06,0-.06,0-.06,0-.06,0-.06v-2.43l0-.08v-.08l0-.06v0l0-.05,0-.06,0,0,0-.05,0,0,0-.06,0-.05,0,0,.27-.4.14-.2,0,0,0,0,0,0,0,0v0l0,0v0l0,0v-.06l0-.06,0-.06,0-.06,0-.06,0-.06,0-.07,0-.06,0-.06,0-.06v-.07l0-.08v-.08l0-.08v-1l0,0,0-.06,0-.07,0-.07,0-.06,0-.07,0-.06,0-.07,0-.06,0-.07,0-.06-.2-.61,0-.08,0-.08,0-.08,0-.08,0-.09,0-.08,0-.08,0-.08,0-.08,0-.08,0-.06,0-.06,0-.07,0-.06,0-.06,0-.07,0-.06,0-.07,0-.06,0-.07,0-.08,0-.08,0-.08,0-.08,0-.09,0-.08,0-.08v-.08l0-.09,0-.08v-.08l0-.08v-.08l0-.07v-.08l0-.08v-.08l0-.08v-.08l0-.08-.1-.54,0-.15-.07-.37.25-.05h.05l.19,0,.33-.07.36-.08.31-.09.36-.11.2-.06.14-.05.12,0,.1-.05.09,0,.08,0,.08,0,.09,0,.07,0,.07,0,.08,0,.07,0,.07,0,.07,0,.08,0,.07,0,.07,0,.07,0,.09-.05.08,0,.08,0,.09,0,.08-.05.08,0,.09-.05.08,0,.08-.05.08,0,.06,0,.13-.07.13-.09.17-.11.19-.14.24-.2h0l.06-.08.24-.19.32-.28.08,0,.2-.07.17-.16.26-.19.21-.17.47-.36.1-.09.11-.06.1-.06.11,0L500,128l.11,0,.11,0,.12,0,.11,0,.12,0,.12,0,.13,0,.12,0,.12,0h.77l.14,0,.14,0,.14,0,.14,0,.14,0,.14.06.13,0,.13.06.14.07.1.06.09.06.1.07.09.06.1.08.08.06.08.06.1.08.1.07.11.09.57.46.15.1.14.09.16.11.13.08.15.09.16.07.15.08.15.06.14.06.17.07.15,0,.15,0,.15.05.09,0,.3.06.38.06.46,0h.93l.35,0,.35,0,.68-.12.74-.19.6-.23.56-.26h0l.67-.39.58-.41,0,0,.71-.67.47-.52L515,127l.06-.07.36-.45h0v0l.19.18.38.36.31.23.47.43.48.37.63.36.18.11.31.18.24.14.47.27.28.07.1,0,.4,0,.44-.07.27-.05.24,0,.28,0,.2.11.24.25.1.26.08.25.06.16,0,.26-.16.43-.19.4-.26.47-.13.32,0,.38.05.34L521,133l-.11.45-.19.34-.24.24-.14.18-.15.23-.15.31-.15.31-.1.3V136l.11.3,0,.34.14.4.1.29,0,.46.08.51v1.43l.06.42.17.42.24.46.27.56.15.43.11.55.1.62v.33l-.07.35-.09.23-.21.17-.26.3-.21.33-.19.54-.24.65-.16.54-.23.57-.27.51,0,0-.07.12-.27.54-.28.55-.16.31,0,.07-.13.51-.42,1-.13.43-.08.42V152l0,.22.07.25.1.41v.33l0,.46-.21.53-.13.35-.12.3-.2.57-.21.42-.28.36-.32.36-.36.37-.3.32-.2.31-.38.45-.17.33-.06.26,0,.33.09.22.1.39.25.39.18.26.06.2.06.39,0,.39,0,.37.07.38.06.17.07.2.25.15.41.06.48.17.53.35.43.18.39,0,.35-.07.27-.14.17-.13.19-.22.13-.37.07-.35,0-.4v0l0-.21v-.06l.07-.26.1-.2.14-.11.19-.07.21,0,.24.07.25.09.15.11.1.14.11.17.13.29,0,.24.09.38,0,.25-.12.35-.28.49-.29.55-.31.92-.26.51-.18.33-.13.28-.08.26-.06.34,0,.46,0,.58,0,.48-.07.48,0,.3-.09.21-.11.13-.08.16-.07.16-.14.11-.2.09h-.16l-.27-.08-.54-.18-.44,0-.4,0-.37,0-.33.1-.37.12-.28.14-.11.16-.07.13-.13.29-.09.56-.09.49-.1.48-.15.41-.4.66-.33.53-.32.51-.24.38-.09.34-.09.38v.17l0,.17-.08.2-.05.1-.07.13-.15.17-.11.08,0,.7,0,.45,0,.39-.2.58-.18.6-.18.32-.2.55-.23.65-.15.61,0,.74-.13.64.06.59.14.59.15.56.3.46.1.29,0,.23-.15.86-.12,1,0,.22,0,.17,0,1.33-.08,1.22-.12.76v.09l0,.64.12.48.17.32.24.26.25.22.28.07.46.11,1.41.26.76.14.45-.07.51-.13.88-.3.83-.4.63-.07.72,0,.25.14.32.31.28.47.09.31,0,.05h0l.09.42.08.67,0,.41.25.57.14.5.06.5v.42l-.13,1-.36.76-.31.72-.21.49-.16.37-.09.21-.12.3-.18.42-.24.37-.26.24-.23.21-.36.34-.22.28-.29.33-.31.37h0l-.16.31-.08.1,0,0,0,.06-.18.24-.26.43,0,.19.06.26.18.27.17.31.43.34.38.19.41.12.28,0,.42,0,.55-.09.42-.07.52.08.73.2.6,0,1,.15.45.07.44.14.48.23.42.28.31.28.59.68.61.69.47.52.37.49.5.68.6.63.92.87.67.52.48.51.36.42.41.9.06,1.7,0,.29v.37l.06.27.15.4.05.25.08,1.14-.31.5-.18.24-.57.69-.75,1-.29,0-.27,0h-.24l-.27-.11-.3-.08-.28-.52-.33-.56-.38-.47-.34-.16-1-.36-1.05-.66-.42-.42-1-.78-.16-.1-.25-.15h0l-.19-.14-.25-.08-.3,0-.38.06-.13.09-.13.15-.09.18,0,.37,0,.41.12.48.36,1.07.71,1.81.54,1.67.22.63.61.6.65.65.58,1.18.23.74.5,1.52.43,1.65.07.46,0,.67-.07.36-.15.42-1,1.42-.17.27-.22.25-.61,1.29-.35,1.77-.29,1.72-.09.41-.3.51-.25.17-.48.37-.32.24-.69,0-1.74-.83-.91,0-.72.38-1.27.65-.36.79-.13,1.31-.26.49-.58.51-.51.48,0,0-.42.4-.7.35-.75.37-1.26,1.54-.3.88-.37-.24-.29-.21-.34-.24-.34-.25-.22-.15-.41-.27-.46.06h-.28l-.45.07-.63.1-.65.11-.48.07-.5.08-.47.08-.47.07-.34.06-.41.07-.3.05-.41,0-.44.06-.36.05-.34,0-.33.06-.37.06-.1,0h-.08l0,0h0v0h0l-.16,0-.12,0h-.29l-.27,0-5.61.59-.12.09-.79,0,.38,2.56v.23l0,0v0l0,0,0,.06,0,0,0,.05,0,0,0,.05,0,0,0,.05,0,0-.45.46-.36.36-.73.74v0l-.22.2-.17-.2-.1-.11-.82-.94-.15-.16v0l-.31-.34v0l0,0V252l.22.92.19.83.13.57h0l.06.25-.18.05-.83.22-.12,0-.23.06-.14,0-.15,0-.11,0h-.21l-.07,0-.06,0-.06,0-.07,0-.06,0-.06,0-.06,0-.06,0-.06,0-.05,0-.34.23-.17.13-.05,0,0,0,0,0,0,0,0,0-.05,0,0,0-.05,0-.05,0-.05,0-.05,0h0l-.05,0-.05,0h-.1l0,0h-1.11l-.05,0h0l-.06,0h-.06l-.06,0h-.81l-.19,0-.19-.09-3.52.83-.21-.91-1.52.34-.31-1.49-11,2.2.09.53,1.85,2.4,1.46,3,.34.4,2.35,1.75.4.48.33.36.58,1,.27.78.16.6-1.23.31.1.25.41-.09.2.58,0,.08.22,1,0,.12.06.09.13.11.23.18.09.09.08.09.08.12.11.19,1,1.69.09.1.1.07h.15l.15,0,1,1.64.69,1.09.21.46.34,1.08.27,1.22-.36,1.52.16.72.54,2.5.08.37-.08.26-.71-.09,2.39,11.55h0l0,0h-.06l0,0,0,0h0l0,0h0l0,0-.06,0h0l-.06,0-.08,0-.07,0-.06,0-.06,0h0l-.06,0-.06,0-.05,0h0l-.07,0h0l-.07,0h-.27l-.07,0h-.11l0,0,0,0,0,0,0,0h0v-.09l0,0h-.16l0,0,0,0h0l0,0,0,0,0,0,0,0,0,0h-.32l-.05,0h0l-.05,0-.05,0-.06,0-.07,0-.07,0h0l-.05,0-.06,0h0l-.07,0-.08,0-.07,0-.07,0-.06,0h0l-.06,0h-.54l-.08,0H479l-.08,0h-.07l-.08,0-.07,0-.07,0-.05,0h-.4l-.06,0h-.56v-.08h-.05l0,0,0,0,0,0h0l0,0h0v0h0v0l0,0h0l0,0h0v0h-.13l0,0h-.16v0h0l0,0h0v0l0,0,0,0h-.07l0,0,0,0h0l0,0h0v0l0,0h-.05l0,0,0,0,0,0,0,0h-.1l0,0v.09h0v.05h0v0l0,0h0l0,0h-.25l0,0h-.6l0,0h-.09l0,0,0,0,0,0,0,0,0,0v0l0,0h-.1v0h0v.1h0v0h0l-.28.05h-.05v0h0v0l0,0,0,0,0,0h0l0,0h-2.13l0,0,0,0h-.24v0H472v0l0,0v0l0,0h0v0h-.38l0,0h-.65l0,0h-.08v-.06h0v0h0l0,0,0,0v.06h0v0h0l0,0h-.09l0,0,0,0h-.18v0h0l0,0h-.1v0h-.5l0,0,0,0,0,0h-1.38l0,0h-.64l0,0h0l0,0h-.14l0,0h0l0,0,0,0,0,0H467l0,0h0l0,0,0,0h0l0,0h0v0h0v0h0v-.07h-.08l0,0h0v-.07h-.06v0h-.21l0,0v0h-.12l0,0h0l0,0v0l0,0h-.76l0,0,0,0v0h0v0h0v0h0v-.08h0v0h-.05l0,0,0,0,0,0,0,0h0l0,0h0l0,0h-.49l0,0h-.2l0,0h0l-.05,0h-.08l0,0h0l0,0,0,0h-.28l0,0h-.07l0,0,0,0,0,0v0h0v0l0,0,0,0h-.42l0,0-.05,0,0,0,0,0,0,0,0,0,0,0h-.16l0,0,0,0,0,0,0,0h0l0,0,0,0h-.14l0,0h0l0,0h-.36l0,0h-.08l0,0h-.05l0,0-.05,0h-.28l-.05,0,0,0h0l0,0h0l0,0,0,0h0l0,0-.05,0,0,0,0,0h0l-.05,0h-.05l-.05,0,0,0-.05,0,0,0,0,0,0,0h0l0,0,0,0,0,0h0l0,0h-.06l0,0h0l0,0,0,0,0,0,0,0h-.05l0,0,0,0H460l0,0h0l0,0h0l0,0h0l0,0h-.37l0,0h0l0,0h0l0,0h-.14v0h0v0h0v0H459v0l0,0,0,0h0v-.07l0,0,0,0,0,0,0,0h-.53v0h0v-.05l0,0v0h0v-.11h-.09v0h0v0h0v0h-.06l0,0v0h0v0h0v0h-.34l0,0,0,0h-.12v0h0l0,0,0,0h0v0h0l0,0,0,0,0,0,0,0,0,0,0,0h0l0,0,0,0h0l0,0,0,0,0,0h-.58l0,0h-.17l0,0h-.15l0,0h-.09l0,0h-.26l0,0h0l0,0,0,0,0,0,0,0,0,0h0l0,0,0,0,0,0-.05,0h-.09l0,0-.05,0H455l-.05,0,0,0h-.1l0,0h-.05l-.06,0,0,0h-.15l0,0-.05,0-.05,0h-.09l-.06,0h-.08l-.05,0h-.25l0,0h-.06l0,0,0,0h-.18l0,0h-.08v0h0v0h0v0h0v0h0v0h0l0,0,0,0,0,0h0l0,0h0l0,0h0v0l0,0,0,0h0l0,0,0,0,0,0h0l0,0h0l0,0,0,0h0l0,0h0l0,0h0l0,0h0l-.05,0h-.09l-.05,0,0,0h-.05l0,0h0l0,0,0,0-.05,0,0,0,0,0,0,0h-.14l0,0,0,0h0l0,0h0l0,0-.05,0h-.06l0,0-.05,0-.05,0,0,0-.05,0-.05,0,0,0,0,0h0l0,0h-.08l0,0,0,0h0l0,0-.05,0,0,0,0,0,0,0,0,0h0l0,0,0,0h0l0,0h0l0,0v0h0v0l0,0,0,0h-.32l0,0,0,0v0h0v0l0,0v-.06h0l0,0h0l0,0h-.12l0,0h-.08l0,0h-.14l0,0H449l0,0h-.17l0,0h-.17l0,0,0,0h0l0,0-.06,0-.08,0h-.24l-.06,0h-.08l-.05,0-.05,0-.05,0-.06,0-.05,0-.05,0-.05,0-.05,0,0,0,0,0-.05,0-.05,0-.06,0-.07,0h-.14l-.06,0-.08,0-.08,0-.07,0,0,0h0l0,0,0,0,0,0-.05,0,0,0,0,0-.05,0,0,0h0l0,0,0,0-.05,0,0-.05-.05-.05,0,0,0,0h0l0,0,0,0h0l0,0,0,0-.05,0,0,0-.05,0-.05,0,0,0h0l0,0,0,0,0-.05,0,0,0,0,0,0-.05,0-.05,0-.05,0,0,0h-.08l0,0,0,0,0,0,0,0,0,0h0l0,0h0l0,0,0,0h0l0,0,0,0,0,0,0,0h-.08l0,0v0h0l0,0h0l0,0,0,0,0,0h-.06l0,0h-.19l0,0h-.13l-.05,0,0,0h0l0,0h0l0,0,0,0h0l0,0v0l0,0,0,0,0,0h0l0,0,0-.05,0,0v0l-.05,0,0-.05-.05-.05,0,0,0,0-.06,0-.06-.05,0,0,0,0,0-.05-.06,0,0,0h0l0,0,0,0-.05,0-.05,0,0,0-.05,0,0,0,0,0h0l0,0,0,0h0l0,0,0-.05-.05-.06,0,0v0h0l0-.05-.05-.05,0-.05h0l0-.05,0-.06,0-.05,0,0,0,0,0,0,0,0-.05-.05,0,0,0,0,0,0,0,0,0,0,0-.05-.05-.05,0-.05-.05,0-.06-.05,0,0,0,0h0l-.05,0-.05-.06-.05-.05,0,0,0,0,0,0-.06-.05,0,0,0,0-.06-.05-.05-.05,0,0,0,0,0,0,0,0-.06-.05,0,0,0,0h0l0,0h0v0h0l0,0,0,0h0v0l0,0,0,0,0-.05,0,0-.05,0-.05,0,0,0,0,0h0l0,0,0,0,0,0,0,0,0,0-.05,0,0,0,0,0,0,0h0l-.05,0h0l0,0,0,0,0,0h-.06l0,0,0,0,0,0,0,0-.06,0-.05,0-.05,0-.05,0-.06,0,0,0-.06,0,0,0,0,0-.06,0h0l-.05,0-.05,0-.07,0,0,0,0,0-.06,0h0l0,0-.05,0-.06,0,0,0h0l0,0h0l0,0,0,0h0v-.08h0v-.09l0,0h0l-.05,0h0l0,0v0l0,0,0,0h-.12l0,0-.05,0,0,0,0,0,0,0,0,0,0,0,0,0-.05,0,0,0,0,0,0,0,0,0,0-.05-.05,0-.05,0,0,0-.05,0,0,0h0l0,0,0,0,0,0h0l0,0,0,0,0,0v0h0l0,0,0,0h0v0h0l0,0v0h-.07l0,0H437l0,0,0,0,0,0,0,0h-.15l-.05,0,0,0h-.06l-.05,0,0,0,0,0h-.07v0h0v0h-.1l0,0,0,0h-.11l0,0,0,0h-.17v0h0l0,0,0,0h0l0,0,0,0h-.12v-.06h0v0h0v0h0v0h-.11l-.05,0,0,0,0,0,0,0,0,0h0l0,0h-.05l0,0,0,0-.05,0,0,0,0,0,0,0v0h0l0,0v0h0l0,0h-.12l0,0h0l0,0,0,0h0l0,0,0,0,0,0h0l0,0h0l0,0h-.05l0,0h0l0,0,0,0,0,0,0,0,0,0,0,0h0v0l0,0h0l0,0H434l0,0h0v0l0,0,0-.05h0l0,0,0,0-.06-.06-.05-.06-.06,0,0-.06-.05-.05,0,0,0-.05,0-.05,0,0,0,0h-.22l-.05,0,0,0,0,0L433,278l0,0,0,0,0,0-.05-.05,0,0,0,0,0-.05v0h0v-.07h0l0,0,0,0,0,0-.05,0h-.27l-.06,0-.06,0,0,0,0,0,0,0,0,0-.06-.05-.05-.05-.05-.06,0-.05h0l0-.05v0l-.05-.07-.06-.06-.05-.07,0,0,0-.05,0-.06,0,0,0,0v0l0,0h0l0,0,0-.05v0h0l0-.06-.05-.06-.05-.07-.06-.07,0-.05v0l-.05-.06,0,0v0l0-.07,0-.06,0-.05v0l0-.07,0-.07,0-.05h0l0-.05v-.05h0v-.07h0v-.05l0-.07v-.18l0-.08V275h0v0l0-.16v0h0v0l0,0,0-.05,0,0,0,0,0-.05v-.08h0v-.06h0V274h0v-.08h0v-.11h0v-.16l0,0v-.06h0l0-.05v0h0v-.06l0-.05,0-.05h0l0,0,0-.06,0-.05h0l0,0v0l0,0,0,0,0-.05,0-.05,0,0v0h0l0,0v-.09h0v-.05l0,0h0v-.09l0-.05v-.05h0l0-.05v-.06h0l0,0,0,0h0l0-.05,0-.05,0-.05,0,0,0-.05,0-.06,0,0h0l0,0,0,0,0-.06,0-.05,0-.05h0l0-.05,0-.06,0-.05,0,0,0,0h0v0l0,0,0,0v0l0,0h0v0l0,0h0l0,0h0l0,0h0v0l0,0,0-.05,0,0,0,0v0h0l0,0,0,0h0l0,0,0-.05h0l0,0,0,0h0l0,0v0h0l0-.05h0v-.09l0-.06v-.05l0-.05v-.05h0V270l0,0h0v0l0,0h0l0,0h0l0,0,0-.05v0h0l0,0,0,0,0-.05,0,0h0l0-.05h0l0-.06,0,0,0,0,0-.05,0-.05,0,0,0,0,0,0,0,0,0-.05,0-.05,0,0,0,0v0h0v-.1h0l0,0,0,0,0,0,0,0,0,0,0,0h0l0,0,0,0,0,0h0l0,0h0l0,0,0,0,0,0,0,0,0,0,0,0,0,0-.05,0,0,0h0l0,0,0,0,0,0,0,0,0,0,0,0h0l0,0h0l0,0,0,0h0v0l0,0h0v0h0l0,0,0,0h0v0l0,0h0l0,0h0l0,0h0l0,0,0,0h0l0,0h0l0,0,0,0v0l0,0h0l0,0h0l0,0h0l0,0,0,0,0,0,0,0,0,0,0,0,0,0h0v0l0,0h0l0,0,0,0,0,0h0l0,0,0,0h0l0,0h0l0,0v0h0l0,0,0,0,0,0,0,0v-.1l0,0h0v0l0,0h-.07v0h0l0,0v0h0v-.07h0v0h0v0h0V266l0,0h-.24l0,0,0,0h0l0,0v0h0v-.09h0v0l0,0h0l0,0h-.09v0h0v-.05l0,0,0,0,0,0,0,0h0l0,0h0v0l0,0v0l0,0h0l0,0h-.07v-.09h0v0h0v0h0V265h0v0h0l0,0h0v0h0v0h0v0h0v0h0v0h0l0,0h-.09v0h0v0h0v0h0v0h0v0h-.09v0h0v0h0v0h-.05v-.09h0v0h0v0h0v0h0v-.05l0,0,0,0v0h0v0h0v0h0v0h0v0h0v0h0v0h0v0H424l0,0v0h0v0h0v-.1h0v0h0v0h0v0h0v0l0,0v0h0v0h0v0h-.13v0h0v0h0v0h-.12l0,0h0l0,0,0,0v0h0v-.06h0l0,0h0l0,0h0l0,0h0v0l0,0,0,0h0l0,0,0,0h0l0,0,0-.05,0,0,0,0,0-.05h0v0l0,0,0,0,0,0h0v-.22h0l0,0h-.05l0,0,0,0,0,0v0h0v0h0v-.06h0v0h-.11l0,0,0,0v-.1h0v0h-.15l0,0h-.07l0,0v0h0v-.06h0v-.05h0l0,0h0l0,0,0,0,0,0,0,0h-.11l0,0v-.07h0v0l0,0h0v0h-.06v0h0v0l0,0v0h0l0,0,0,0,0,0h0l0,0h0l0,0,0,0,0,0,0,0v0h0l0,0,0,0,0,0h0l0,0h0l0,0,0,0h0v0l0,0h0l0,0,0,0,0,0,0,0h0V260h0v0h0v0h0v-.1h0v0h0v-.05h0v-.05h-.06v0h0v0h0v0h0v0h0v0h0v0h-.09l0,0,0,0v0l0,0v0h0v-.05h0v0l0,0,0,0v0l0,0,0,0,0,0,0,0,0,0h-.12v0l0,0-.13-.12-.08-.07h0v0h0v0h0v0h-.05l0,0,0,0H420l0,0,0,0,0,0h-.06l0,0,0,0,0,0,0,0,0,0,0,0,0,0h0l0,0h0l0,0,0,0h0v0l0,0h0v0h0l0,0h0l0,0,0,0h0l0,0h0l0,0h0v0l0,0,0,0,0,0v0h0l0,0,0,0h0v-.11h0v0h0v0h-.06v-.1h0l0,0h0v0l0,0h-.08l0,0h-.34l0,0,0,0,0,0,0,0,0,0,0,0,0,0,0,0,0,0,0,0h0v0l0,0h-.05l0,0,0,0,0,0,0,0,0-.05v-.14h0v0h0v0h-.07v0h-.07v0h0v-.07h-.2l0,0v0h0v0l0,0,0,0,0,0v-.06h0v0h-.06v0h0v0l0,0,0,0,0,0h0v0h0v0h-.09v0h0v0l0,0h0v0h-.09v0h0l0,0v0h0v0h0v0h0l0,0,0,0,0,0,0,0h0l0,0,0,0,0,0,0,0h-.13v-.08h0v0h0v-.05h0v-.06h-.12v0h-.08v0h0v0h-.06v0h0v0h-.11v0h0v0h0v-.05l0,0h0v0H416l0,0,0,0,0,0v-.06h0v0h0l0,0,0,0v0h0l0,0h-.12l0,0h-.09l0,0h0v0h0l0,0h0v0h0v-.11h0v0h0v0h0v.05h0v0h0v0h-.16l0,0,0,0h0l0,0h-.07l0,0h-.08l0,0,0,0,0,0,0,0h0v0h0l0,0h-.1l0,0h-.15l0,0,0,0h0v0l0,0,0,0h0v0l0,0h0v-.08h0v0l0,0,0,0h-.19v0l0,0h-.19v0l0,0h-.11l0,0,0,0,0,0h-.15l0,0h0l0,0,0,0h0l0,0,0,0v0h0l0,0h0v0h0v0H413v0h0l0,0h-.21l0,0v0h0l0,0h0l0,0,0,0,0,0,0,0,0,0h0l0,0h0v0h0v0l0,0v0h-.08l0,0h-.08l0,0,0,0,0,0h-.06l0,0,0,0,0,0,0,0,0,0,0,0,0,0v0h0v0h0v0h-.09l0,0h0v0h-.39l0,0h0v-.06l0,0h-.06l0,0h0l0,0v0l0,0h0v0h0l0,0v0h0v-.07h0l0,0v0h0l0,0H411l0,0,0,0h0v0l0,0h0l0,0,0,0,0,0h0v-.06h0v0l0,0,0,0h-.27V251h-.08l0,0,0,0,0,0h-.1l0,0,0,0,0,0h0l0,0h-.22v-.08h0v-.08h-.18v0h-.07v0h0v0l0,0v-.13h0v0h-.07v-.06h0v0h-.15v0h-.14v0h0v0l0,0v0H409v0l0,0,0,0h0l0,0h0l0,0,0,0,0,0h-.26l0,0v0h0v-.09h-.12l0,0,0,0,0,0,0,0,0,0h-.06l0,0h0l0,0H408l0,0,0,0h0l0,0,0,0,0,0,0,0,0,0,0-.05,0,0,0,0,0,0v-.06h0v-.05h.1v0h0v0l0,0h-.14l0,0,0,0v0h0v0h0v0h0v0h0v0h0v0h-.06l0,0v0h0v.05h0l0,0,0,0,0,0,0,0h-.09v-.05h0V248h0v0h-.11v-.07h0v0l0,0h-.07l0,0v0l0,0h0v0h-.09l0,0v0l0,0h-.21v0h0v0h0l0,0v0h-.06v-.06h0v0h0v-.05h0v0h0v0l0,0v0l0,0h0l0,0v0h0l0,0v0h0l0,0h-.05v0l0,0h-.05l0,0v-.12h0v0l0,0h0l0,0h0l0,0h0l0,0h0l0,0h0v-.08h0v0h-.05l0,0h0l0,0h0v0h-.09v-.05h0v-.05h0v-.05h0v0h0v-.09H405v0l0,0,0,0,0,0,0,0,0,0v0l0,0,0,0v-.06h-.09l0,0h0v0h0v-.07h0v0h0v0h0v0h0v0h0l0,0h0l0,0h-.07l0,0,0,0,0,0h0v-.05l0,0v0l0,0v0h0v0h0v0h-.05l0,0v0h0l0,0,0,0,0,0v0l0,0,0,0,0,0v0h0v-.11H404v0h-.06v0h-.06l0,0h0l0,0h0v0l0,0v0h0v-.05l0,0,0,0,0,0v0l0,0,0,0h0l0,0h0v0h0v0l0,0h0l0,0V244h0v0l0,0v0h-.15l0,0,0,0,0,0h0v-.07l0,0,0,0h-.13l0,0,0,0,0,0,0,0h0l0,0v-.09h0v0h0v0h0v0h-.07v0h0v0h0v0h0l0,0,0,0,0,0v0l0,0v0h-.12v0h0V243h0v0h-.08l0,0v0h0v0l0,0h-.42l0,0,0,0,0,0,0,0,0,0,0,0h0l0,0h0l0,0,0,0,0,0,0,0h0l0,0v0h0v0l0,0,0,0,0,0,0,0v0h0v0l0,0h0v0h0v0h0v0h-.07l0,0,0,0v0h0v0l0,0h-.08v0h-.05v-.06h0v0h0v-.07h0V242h-.09l0,0,0,0h-.06l0,0,0,0,0,0h0l0,0,0,0,0,0v0h0v0l0,0,0,0v0l0,0h0l0,0h-.11l0,0h0v-.07h0v-.05l0,0h0l0,0h-.12l0,0,0,0v0H400l0,0,0,0v0l0,0,0,0v0l0,0,0,0,0,0,0,0,0,0,0,0,0,0v0h0v0h0v0h0l0,0v-.09h0v0h-.17l0,0,0,0h0v-.08h-.07l0,0,0,0h0v0h0v0l0,0v0h0v0h0V240h0l0,0,0,0,0,0,0,0,0,0v0h0v0h0v0l0,0,0,0,0,0h-.12v0h0v-.09h0v-.06h0v0h0v0h0l-.12-.35,0-.05v0l0,0,0,0,0,0,0,0,0,0,0,0,0,0,0,0,0,0h0l0,0v-.16l0,0,0,0h0v-.06h0v-.2h0V238h0v-.08h0l-.13-.32v0h0l-.07-.18v0l0,0,0,0,0,0,0,0,0,0H398v-.07h0v-.05h0V237h0v0h0v-.06l0,0,0,0,0,0,0,0,0,0v-.1h0v0h0v-.06h0v0h0v0h0v0h0v0h0v0h0v0h0v0h0v0h0v0l0-.14v0l0,0h0l0,0,0,0,0-.05,0,0v-.06h0v-.11h0v0h0v-.17h0v0h0l0,0h0v-.07h0v0h-.08l0,0,0,0,0,0,0,0,0,0V235h0v0h0l0,0,0,0h0v0h0v0h0v0h0v0H397l0,0v0h0v0h0v-.06h0v-.05l0,0h-.06l0,0,0,0h0l0,0,0,0h0v0h0l0,0h0v0h0v0l0,0,0,0,0,0,0,0,0,0,0,0,0,0h-.12l0,0,0,0,0,0v0l0,0v-.05h0v0l0,0h0l0,0h-.07l0,0v0h.07v0h0l0,0h0v0h0l0,0,0,0,0,0,0,0h0l0,0h0l0,0,0,0,0,0v0h0v0l0,0,0,0,0,0,0,0v-.1h0v-.06l0,0,0,0h0l0,0h0l0,0,0,0,0,0,0,0v0h0v0h0v-.21l0,0v0h0v-.06h0v-.09h0l0,0v0l0,0h-.14v0l0,0v0l0,0h0v0l0,0h0v0h0l0,0v0h0v0h0v-.1l0,0v0h0v0H395v-.11h-.18v0h0v0h0v-.08l0,0,0,0,0,0h-.07v0h0v-.11h-.12v0h0v0h0v0h0v0h0v-.09h0v0l0,0h-.17v0h0v0h0v0h0v0h0v0h0v0H394v-.05h0v-.07l0,0h-.11l0,0,0,0,0,0,0,0v0h0v0l0,0,0,0h-.2v-.1h0v-.05h0v0h-.1v0l0,0,0,0H393l0,0,0,0h0l0,0v0h0V229h0v0h0v0h-.12l0,0v0h0l0,0h0v-.07h0v0h0v0l0,0v0h0l0,0v0h0v0h0v0l0,0h0l0,0h-.09l0,0v0h0v0h0l0,0v0h0v-.05l0,0h0v-.05l0-.05,0,0,0,0v0h0l0,0v0h0v-.05h0l0,0,0,0,0,0,0,0h0l0,0h0l0,0v0l0,0,0,0,0,0,0,0,0,0h-.09l0,0,0,0,0,0,0,0,0,0h0l0,0,0,0,0,0v0h0l0,0,0,0h0l0,0h0l0,0,0,0,0,0h0l0,0h-.08l0,0,0,0,0,0-.05,0,0,0,0,0,0,0,0,0h0l-.05,0,0,0h0l0,0h0l0,0h0v0l0,0,0,0v0h-.1v.05h0v0h-.18v0h0v0l0,0,0,0,0,0H390l0,0,0,0,0,0,0,0,0,0h0v0h0v0l0,0h0l.35-.6L457.84,109l.11.14.14.19.16.21,0,0,.71.91.13.17.13.17h0l.76.94.28.36.14.18.13.17.3.39.16.21.46.59.23.29.15.19.11.16.09.19.4.72.27.48.57,1.06.11.19.1.19,0,0,.42.78.6,1.12.11.2.11.2.1.17.65,1.19.36.67.11.19.09.15,0,.09.78,1.44.22.41.1.18.09.16.07.13.15.27.73,1.34.08.15.11.2.11.2,0,.07,1,1.79.1.19.1.18.48.89.52,1,.07.13,0,0,.09.17.37.67.42.78.16.29.23.43.09.17.11.2.44.79.11.2.38.71.06.09.07.15,0,.05.13.26,0,.06.06.06,0,0,.08.06.21.56,0,.08.35.61.69,1.28.19.36.09.16.11.2.19.35.9,1.64,0,0,.08.15.07.13.18.34,0,.1,0,.05,0,0,.08.09.11.12.31,0h.15l.14,0h.14l.15,0,.14,0,.15,0,.16,0,.17,0,.16,0,.17,0,.16,0,.17,0,.16,0,.17,0,.16,0,.16,0,.1,0,.09,0,.09,0h.66l.43,0,.56-.06.9-.08h.26l.6-.06.75-.07h.12l.13,0h3l.11,0h.83l.06,0h0l.06,0h.05l.06,0,.05,0,.06,0,.06,0,.06,0,.06,0,.06,0,.06,0,.06,0,.06,0,.06,0,.06,0,0,0,.22.17.08,0,.07.06.07.05.08.06.07,0,.07.06.08.05.07.06.07.06.08,0,.16.13,0,0,0,0,0,0,0,0,0,0,0,0,0,0,0,0,0,0Z"/><rect class="cls-5" x="349.42" y="13.12" width="471.86" height="572.63"/><path class="cls-13" d="M501.41,33.92,613,117.82l-.33.2h0l0,0-.06,0-.06,0-.06,0h0l0,0-.06,0h-.06l-.07,0h-.12l-.87.08h-.55l-.08,0h-.15l-.41.09-.44.09-.77.15-.61.13h-.06l-.15,0-.14,0-.22,0-.12,0-.32.07-.43.09-.88.18-.82.17-1,.19-.64.13-.18,0-.46.1-.1,0-.1,0h0l-.07,0-.09,0-.1,0-.09,0h0l-.09,0-.08,0h0l-.09,0-.09,0h0l-.07,0-.09.05-.09,0-.09,0-.09.06-.09.06,0,0-.06,0-.08.07-.09.06-.08.07-.07.06-.07.06-.07.07-.07.06-.06.07-.07.07-.06.07-.06.07-.06.08-.06.07h0l0,0,0,0,0,.05,0,0,0,0,0,.05,0,0,0,.06h0l0,0,0,.06,0,0,0,.08-.05.08,0,.08,0,.08,0,.06v0l0,.09,0,.08,0,.09,0,.09,0,.09,0,0-.07.23-.05.15v0l-.15.5-.17.47,0,.08,0,.07,0,.05v0l0,.08,0,.07,0,0,0,0,0,.08,0,.07,0,.07h0l0,.07,0,.06,0,.07,0,.06,0,.06,0,.06,0,.06,0,.06,0,0,0,.06,0,.06-.42.51-.16.21-.21-.16,0,0,0,0,0,0,0,0,0,0,0,0h0l-.32-.26-2.6-1.92-1.07-.79,0,.12,0,.16-.12.36-.1.28v0l-.2.38-.07.12,0,0-.12.16-.16.18-.15.15-.22.17-.36.25,0,0-.26.16-.63.35-1.37.76-.18.1-1.57.9-.66.38-.06,0h0l-.11.06-.09.06,0,0-.13.07-.05,0-.07,0-.13.07-.12.07-.13.07-.12.07-.13.08-.12.07-.58.32h0l-.13.07-.13.07-.59.33-.06,0h0l-.81.47-.11.06-.55.3-.4.22-.07,0h0l0,0-.07,0-.08,0h-.09l.1.51.05.21,0,.17.2,1,.17.84.15.69v0l0,.19,0,.21,0,.1.12.58,0,.22,0,.08,0,.08v.08l0,.08,0,.08,0,.08,0,.08,0,.08,0,.08,0,.07.16.57v.07l.06.21.05.2.14.54.27,1.07.29,1.09,0,.19,0,.14.09.35.11.42v.05l.25.95.13.52.06.23.29,1.17.14.53.1.37,0,.07.29,1.15.24.91.21.82,0,.12,0,.21.06.21.09.37.41,1.49.21.83,0,.15,0,.2.08.45,0,.46v.8l0,.12,0,.12,0,.11,0,.12v0l0,.06,0,.13v0l0,0,0,.06v0l0,.11,0,.13-.27.68-.24.37,0,.07,0,.07,0,.07,0,.07,0,.07-.05.06-.65.87-.62.83-.54.7-.07.1,0,0-.05.06-.07.09,0,0-.06.07-.08.09-.08.08h0l-.08.08-.09.09-.09.08-.09.07-.25.25,0,0,0,0,0,0,0,0h0l0,0,0,.05,0,0,0,0,0,0h0l0,0,0,0,0,.05,0,.05,0,0,0,.05,0,0,0,.05,0,0,0,.05,0,.05h0l0,0,0,.08,0,.08,0,.08,0,.08,0,.08,0,.08,0,.08,0,.08,0,.08,0,.08v.28l-.07.6,0,.41,0,.19,0,.19v.1l-.07.61v.55l0,.08,0,.08,0,.08,0,.08,0,.08,0,.08,0,.07,0,.08,0,.08,0,.07-.13.3-.22.44-.13.23-.12.22-.1.19,0,0-.15.31-.31.69-.28.64-.24.55,0,.05,0,0,0,.05,0,.05,0,.06,0,0,0,.05v0l0,.06,0,.05-.07.22-.07.23-.14.43v.15l0,0v.19l-.2,1L579,172l0,.2,0,.17-.08.38V173l0,0v.1l0,0h0l-.06.12-.17.32-.57,1.16-.31.64-.07.15,0,.09-.1.21-.09.18-.1.2v0l-.09.18-.12.24-.3.61-.14.29-.1.21,0,.07-.17.34-.11.24,0,.07-.05.08,0,.07,0,.07,0,.07,0,.07-.05.06-.06.07,0,.06,0,.05v0l0,0-.05.05,0,0-.06.05-.05,0,0,.05,0,0,0,0,0,0-.06,0-.06,0-.17.11,0,0-.14.09-.17.11-.18.11-.17.11-.18.11-.17.11-.17.11-.18.1-.18.11h0l-.26.15-.22.12-.61.35,0,0-.05,0,0,0h0l-.05,0,0,0,0,0h0l-.06,0,0,0h0l0,0,0,0-.81.32-.48.19-.38.16-.85.33h0l-.21.09-.17.08-.05,0-.42.24-.39.23-.07,0-1.08.65-.58.34-.17.1-.12.08-.33.19-1.16.7-.46.26-.11.42-.12.44,0,.05-.32,1.13-.31,1.07,0,.11L563,189l0,.11-.19.07-.11,0h-.31l-.6-.1-.1-.05,0,0-.11-.05-.11,0-.56-.09-.87-.14-.72-.12h0l-.2,0-.17,0-.44-.07-1.05-.19h0l-.67-.1-.21,0-.14,0h-.09l-1.11-.19-.08,0-.76-.11-.25,0-.23,0-.16,0-.14,0h-.07l-.18,0-.24-.05-.39-.06-.64-.11-.21,0-.19,0-.35-.05-.33-.06-1.06-.17-.23,0-.42-.08-.18,0-.63-.08-.3,0-.24-.05-.63-.12-.16,0-.17,0-.38-.06-.22,0-.16,0-.16,0h-.74l-.1,0H545l-.1,0-.81.17-.79.16-.85.17-.14,0-.63.12-.31.07h-.08l-.23.05-.05-.25-.11-.55v0l-.06-.29-.11-.53-.09-.49-.27.2-.14.11-.14.11-.14.11-.13.11-.14.12-.13.11-.11.1-.1.1-.1.1-.11.1-.1.1-.1.1-.1.11-.1.1-.1.11-.1.1-.39.46-.51.62-.29.35-.15.19-.17.18-.16.16-.07.06-.06.06-.07.06-.07.06-.06.05-.07.06-.07.05-.07.06-.07,0,0,0,0,0-.1.07-.37.24-.24.16-.06,0-.05,0-.06,0-.05,0-.06,0-.05,0-.06,0,0,0-.05,0-.06,0-.05,0,0,0-.06,0,0,0,0,0-.05.05,0,0-.05,0,0,.05,0,.05,0,0,0,0,0,0,0,0,0,0,0,0,0,0,0,.05,0,0,0,0-.05.08-.06.08-.06.08-.06.07-.06.08-.06.07-.07.07-.06.07-.07.06-.07.07-.06,0-.06.05-.06,0-.07.05-.06,0-.07.05-.06,0-.07,0-.07,0-.07,0-.08,0-.08,0-.08,0-.08,0-.08,0-.08,0-.09,0-.08,0-.09,0-.08,0-.37.05-.07,0-.07,0h-.07l-.07,0-.07,0-.07,0-.08,0-.07,0-.07,0-.07,0-.09,0-.09,0-.09,0-.08,0-.09,0-.09,0-.09,0-.09.05-.09,0-.08,0-.08,0-.08,0-.08,0-.08,0-.08,0-.08,0-.09,0-.08,0-.08,0-.08,0-.1,0-.1,0-.11,0-.1,0-.1,0-.1,0-.11,0-.1,0-.1,0-.1,0-.71.15-.8.16h-.23l0,0h-.09l0,0,0,0-.06,0-.06,0-.06,0-.06,0-.06,0-.05,0-.06,0-.06,0,0,0-.06,0,0,0,0,0-.05,0-.06,0-.05,0,0,0,0,0-.05,0,0,0,0,0-.41.38-.51.47-.24.21L524,196l-.07.06-.07.06-.08.06-.07.06-.07.06-.07.06-.08.05-.07.06-.08,0-1.37.94-.23.2-.94.88.36-.76.13-1v-.42l-.06-.5-.14-.5-.25-.57,0-.41-.08-.67-.09-.42h0l0-.05-.09-.31-.28-.47-.32-.31-.25-.14-.72,0-.63.07-.83.4-.88.3-.51.13-.45.07-.76-.14-1.41-.26-.46-.11-.28-.07-.25-.22-.24-.26-.17-.32-.12-.48,0-.64v-.09l.12-.76.08-1.22,0-1.33,0-.17,0-.22.12-1,.15-.86,0-.23-.1-.29-.3-.46-.15-.56-.14-.59-.06-.59.13-.64,0-.74.15-.61.23-.65.2-.55.18-.32.18-.6.2-.58,0-.39,0-.45,0-.7.11-.08.15-.17.07-.13.05-.1.08-.2,0-.17v-.17l.09-.38.09-.34.24-.38.32-.51.33-.53.4-.66.15-.41.1-.48.09-.49.09-.56.13-.29.07-.13.11-.16.28-.14.37-.12.33-.1.37,0,.4,0,.44,0,.54.18.27.08h.16l.2-.09.14-.11.07-.16.08-.16.11-.13.09-.21,0-.3.07-.48,0-.48,0-.58,0-.46.06-.34.08-.26.13-.28.18-.33.26-.51.31-.92.29-.55.28-.49.12-.35,0-.25-.09-.38,0-.24-.13-.29-.11-.17-.1-.14-.15-.11-.25-.09-.24-.07-.21,0-.19.07-.14.11-.1.2-.07.26v.06l0,.21v0l0,.4-.07.35-.13.37-.19.22-.17.13-.27.14-.35.07-.39,0-.43-.18-.53-.35-.48-.17-.41-.06-.25-.15-.07-.2-.06-.17-.07-.38,0-.37,0-.39-.06-.39-.06-.2-.18-.26-.25-.39-.1-.39-.09-.22,0-.33.06-.26.17-.33.38-.45.2-.31.3-.32.36-.37.32-.36.28-.36.21-.42.2-.57.12-.3.13-.35.21-.53,0-.46v-.33l-.1-.41-.07-.25,0-.22v-.32l.08-.42.13-.43.42-1,.13-.51,0-.07.16-.31.28-.55.27-.54.07-.12,0,0,.27-.51.23-.57.16-.54.24-.65.19-.54.21-.33.26-.3.21-.17.09-.23.07-.35v-.33l-.1-.62-.11-.55-.15-.43-.27-.56-.24-.46-.17-.42-.06-.42v-1.43l-.08-.51,0-.46-.1-.29-.14-.4,0-.34-.11-.3v-.61l.1-.3.15-.31.15-.31.15-.23.14-.18.24-.24.19-.34L521,133l.07-.29-.05-.34,0-.38.13-.32.26-.47.19-.4.16-.43,0-.26-.06-.16-.08-.25-.1-.26-.24-.25-.2-.11-.28,0-.24,0-.27.05-.44.07-.4,0-.1,0-.28-.07-.47-.27-.24-.14-.31-.18-.18-.11-.63-.36-.48-.37-.47-.43L516,127l-.38-.36-.19-.18v0h0l-.36.45L515,127l-.53.58-.47.52-.71.67,0,0-.58.41-.67.39h0l-.56.26-.6.23-.74.19-.68.12-.35,0-.35,0h-.93l-.46,0-.38-.06-.3-.06-.09,0-.15-.05-.15,0-.15,0-.17-.07-.14-.06-.15-.06-.15-.08-.16-.07-.15-.09-.13-.08-.16-.11-.14-.09-.15-.1-.57-.46-.11-.09-.1-.07-.1-.08-.08-.06-.08-.06-.1-.08-.09-.06-.1-.07-.09-.06-.1-.06-.14-.07-.13-.06-.13,0-.14-.06-.14,0-.14,0-.14,0-.14,0-.14,0H501l-.12,0-.12,0-.13,0-.12,0-.12,0-.11,0-.12,0-.11,0-.11,0-.11.05-.11,0-.1.06-.11.06-.1.09-.47.36-.21.17-.26.19-.17.16-.2.07-.08,0-.32.28-.24.19-.06.08h0l-.24.2-.19.14-.17.11-.13.09-.13.07-.06,0-.08,0-.08.05-.08,0-.09.05-.08,0-.08.05-.09,0-.08,0-.08,0-.09.05-.07,0-.07,0-.07,0-.08,0-.07,0-.07,0-.07,0-.08,0-.07,0-.07,0-.09,0-.08,0-.08,0-.09,0-.1.05-.12,0-.14.05-.2.06-.36.11-.31.09-.36.08-.33.07-.19,0h-.05l-.25.05.07.37,0,.15.1.54,0,.08v.08l0,.08v.08l0,.08v.08l0,.07v.08l0,.08v.08l0,.08,0,.09v.08l0,.08,0,.08,0,.09,0,.08,0,.08,0,.08,0,.08,0,.07,0,.06,0,.07,0,.06,0,.07,0,.06,0,.06,0,.07,0,.06,0,.06,0,.08,0,.08,0,.08,0,.08,0,.08,0,.09,0,.08,0,.08,0,.08,0,.08.2.61,0,.06,0,.07,0,.06,0,.07,0,.06,0,.07,0,.06,0,.07,0,.07,0,.06,0,0v1l0,.08v.08l0,.08v.07l0,.06,0,.06,0,.06,0,.07,0,.06,0,.06,0,.06,0,.06,0,.06v.06l0,0v0l0,0v0l0,0,0,0,0,0,0,0-.14.2-.27.4,0,0,0,.05,0,.06,0,0,0,.05,0,0,0,.06,0,.05v0l0,.06v.08l0,.08v2.43l0,.06,0,.06,0,.06,0,.06,0,.06,0,.06,0,0,0,0,0,0,0,0,0,0,0,0,0,0,0,0,0,0,0,0H492l0,0h-.58l-.09,0h-.07l-.05,0,0,0-.05,0,0,0,0-.1,0,0,0,0,0,0,0,0,0,0,0,0,0,0,0,0,0,0,0,0-.16-.13-.08,0-.07-.06-.07-.06-.08-.05-.07-.06-.07,0-.08-.06-.07-.05-.07-.06-.08,0-.22-.17,0,0-.06,0-.06,0-.06,0-.06,0-.06,0-.06,0-.06,0-.06,0-.06,0-.06,0-.05,0-.06,0h-.05l-.06,0h0l-.06,0h-.83l-.11,0h-3l-.13,0h-.12l-.75.07-.6.06h-.26l-.9.08-.56.06-.43,0h-.66l-.09,0-.09,0-.1,0-.16,0-.16,0-.17,0-.16,0-.17,0-.16,0-.17,0-.16,0-.17,0-.16,0-.15,0-.14,0-.15,0h-.14l-.14,0h-.15l-.31,0-.11-.12-.08-.09,0,0,0-.05,0-.1-.18-.34-.07-.13-.08-.15,0,0-.9-1.64-.19-.35-.11-.2-.09-.16-.19-.36-.69-1.28-.35-.61,0-.08-.21-.56-.08-.06,0,0-.06-.06,0-.06-.13-.26,0-.05-.07-.15-.06-.09-.38-.71-.11-.2-.44-.79-.11-.2-.09-.17-.23-.43-.16-.29-.42-.78-.37-.67-.09-.17,0,0-.07-.13-.52-1-.48-.89-.1-.18-.1-.19-1-1.79,0-.07-.11-.2-.11-.2-.08-.15-.73-1.34-.15-.27-.07-.13-.09-.16-.1-.18-.22-.41-.78-1.44,0-.09-.09-.15-.11-.19-.36-.67-.65-1.19-.1-.17-.11-.2-.11-.2-.6-1.12-.42-.78,0,0-.1-.19-.11-.19-.57-1.06-.27-.48-.4-.72-.09-.19-.11-.16-.15-.19-.23-.29-.46-.59-.16-.21-.3-.39-.13-.17-.14-.18-.28-.36-.76-.94h0l-.13-.17-.13-.17-.71-.91,0,0-.16-.21-.14-.19-.11-.14Z"/><rect class="cls-5" x="349.42" y="13.12" width="471.86" height="572.63"/><g id="Patch_1" data-name="Patch 1"><rect class="cls-14" x="247.53" y="369.68" width="36.79" height="19.41"/></g><g id="Patch_2" data-name="Patch 2"><rect class="cls-15" x="247.53" y="344.95" width="36.79" height="19.41"/></g><g id="Patch_3" data-name="Patch 3"><rect class="cls-16" x="247.53" y="320.22" width="36.79" height="19.41"/></g><g id="Patch_4" data-name="Patch 4"><rect class="cls-17" x="247.53" y="295.5" width="36.79" height="19.41"/></g><g id="Patch_5" data-name="Patch 5"><rect class="cls-18" x="247.53" y="270.77" width="36.79" height="19.41"/></g><g id="Patch_6" data-name="Patch 6"><rect class="cls-19" x="247.53" y="243.2" width="36.79" height="19.41"/></g><g id="Patch_7" data-name="Patch 7"><rect class="cls-20" x="247.53" y="218.48" width="36.79" height="19.41"/></g><g id="Patch_8" data-name="Patch 8"><rect class="cls-21" x="247.53" y="193.75" width="36.79" height="19.41"/></g></svg>